<?xml version="1.0" encoding="UTF-8"?>
<svg width="26px" height="30px" viewBox="0 0 26 30" version="1.1" xmlns="http://www.w3.org/2000/svg" xmlns:xlink="http://www.w3.org/1999/xlink">
    <!-- Generator: Sketch 52.5 (67469) - http://www.bohemiancoding.com/sketch -->
    <title>个人账户详情 copy</title>
    <desc>Created with Sketch.</desc>
    <defs>
        <linearGradient x1="100%" y1="105.482055%" x2="-145.100341%" y2="-331.781592%" id="linearGradient-1">
            <stop stop-color="#1B3BD8" offset="0%"></stop>
            <stop stop-color="#176CE0" offset="26.032945%"></stop>
            <stop stop-color="#0B92E7" offset="49.1836977%"></stop>
            <stop stop-color="#0BB6EB" offset="71.3239784%"></stop>
            <stop stop-color="#00E0F2" offset="100%"></stop>
        </linearGradient>
        <linearGradient x1="118.891309%" y1="92.2897461%" x2="0%" y2="0%" id="linearGradient-2">
            <stop stop-color="#1B3BD8" offset="0%"></stop>
            <stop stop-color="#176CE0" offset="31.4739301%"></stop>
            <stop stop-color="#0B92E7" offset="49.1836977%"></stop>
            <stop stop-color="#0BB6EB" offset="71.3239784%"></stop>
            <stop stop-color="#00E0F2" offset="100%"></stop>
        </linearGradient>
    </defs>
    <g id="Page-1" stroke="none" stroke-width="1" fill="none" fill-rule="evenodd">
        <g id="个人账户详情-copy" transform="translate(-995.000000, -109.000000)">
            <g id="奖池" transform="translate(995.000000, 109.000000)">
                <path d="M26,19.9944813 L26,20.4333443 C26,22.0018566 25.1019594,23.4512766 23.6440328,24.2354 L15.3560385,28.6935914 C13.8981119,29.4778476 12.1018881,29.4778476 10.6439615,28.6935914 L2.35610973,24.2354 C0.898183114,23.4512766 0,22.0018566 0,20.4333443 L0,19.994367 C0.45620745,20.8311758 1.16737423,21.5437043 2.0697146,22.0290141 L10.3575328,26.4871875 C11.9927005,27.3667862 14.0072995,27.3667862 15.64247,26.487186 L23.9304578,22.028998 C24.8327267,21.5437266 25.5438262,20.8312482 26,19.9944813 Z" id="Combined-Shape" fill="url(#linearGradient-1)"></path>
                <path d="M0,17.7647226 C0,19.3332349 0.898183114,20.7826549 2.35610973,21.5667783 L10.6439615,26.0249697 C12.1018881,26.8092259 13.8981119,26.8092259 15.3560385,26.0249697 L23.6440328,21.5667783 C25.1019594,20.7826549 26,19.3332349 26,17.7647226 L26,8.84833968 C26,7.27996017 25.1019594,5.83067288 23.6440328,5.04628398 L15.3560385,0.588092529 C13.8981119,-0.196030843 12.1018881,-0.196030843 10.6439615,0.588092529 L2.35610973,5.04628398 C0.898183114,5.83067288 0,7.27996017 0,8.84833968 L0,17.7647226 Z" id="Fill-470-Copy-4" fill="url(#linearGradient-2)"></path>
                <g id="分组-3" transform="translate(6.100000, 6.000000)">
                    <polygon id="路径" fill="#FFFFFF" points="4.2228 5.336 9.58947178 5.336 9.58947178 0.736 4.2228 0.736"></polygon>
                    <polygon id="路径" fill="#FFFFFF" points="9.92833819 4.44657978 9.92833819 5.09831212 10.5417063 5.09831212 11.0783459 5.82658898 2.72165414 5.82658898 3.25838572 5.09831212 3.87166181 5.09831212 3.87166181 4.44657978 1.99337729 4.44657978 0 6.43995707 0 12.88 13.8 12.88 13.8 6.43995707 11.8068067 4.44657978"></polygon>
                    <polygon id="路径" fill="#0BACEA" points="1.99337729 10.5032347 11.8068067 10.5032347 11.8068067 8.20323469 1.99337729 8.20323469"></polygon>
                </g>
            </g>
        </g>
    </g>
</svg>