<svg xmlns="http://www.w3.org/2000/svg" width="24" height="24" viewBox="0 0 24 24">
  <g fill="none" fill-rule="evenodd">
    <rect width="24" height="24"/>
    <path fill="#3498db" fill-rule="nonzero" d="M16.2284472 5.00000002C20.4578669 5.00076562 23.8864457 8.42981807 23.8864457 12.6578743 23.8864457 16.8849205 20.4574281 20.3127541 16.2284472 20.3142857 11.9998438 20.3127541 8.57142857 16.8850493 8.57142857 12.6578743 8.57142857 8.43044148 12.0001018 5.00153148 16.2284472 5.00000002zM21.7371434 12.6584951C21.7316337 9.61576008 19.270379 7.15408002 16.2291924 7.14857087 13.1872355 7.15408041 10.7255087 9.61601995 10.7199993 12.6571755 10.7261971 15.6982161 13.1863455 18.15841 16.2285714 18.1657134 19.2710444 18.1584094 21.7316348 15.6979863 21.7371434 12.6584951zM19.4978743 11.5828571L19.4978743 13.7314286 15.1550171 13.7314286 15.1550171 7.92571429 17.3035886 7.92571429 17.3035886 11.5828571 19.4978743 11.5828571zM6.88 1.34285714L6.88 7.88.342857143 7.88.342857143 1.34285714 6.88 1.34285714zM4.73142857 3.49069714L2.49069714 3.49069714 2.49069714 5.73069714 4.73142857 5.73069714 4.73142857 3.49069714zM.342857143 8.65714286L6.88 8.65714286 6.88 15.1942857.342857143 15.1942857.342857143 8.65714286zM.342857143 22.5085714L.342857143 15.9714286 6.88 15.9714286 6.88 22.5085714.342857143 22.5085714z"/>
  </g>
</svg>
