<?xml version="1.0" encoding="UTF-8" standalone="no"?>
<svg width="36px" height="36px" viewBox="0 0 36 36" version="1.1" xmlns="http://www.w3.org/2000/svg" xmlns:xlink="http://www.w3.org/1999/xlink">
    <!-- Generator: Sketch 49.3 (51167) - http://www.bohemiancoding.com/sketch -->
    <title>dicord</title>
    <desc>Created with Sketch.</desc>
    <defs></defs>
    <g id="Symbols" stroke="none" stroke-width="1" fill="none" fill-rule="evenodd">
        <g id="footer" transform="translate(-621.000000, -20.000000)">
            <g id="Group-3" transform="translate(567.000000, 20.000000)">
                <g id="facebook-copy" transform="translate(54.000000, 0.000000)">
                    <circle id="Oval-8" stroke="#E5EDF3" cx="18" cy="18" r="17"></circle>
                    <path d="M21.2933396,23.1952209 C22.4001246,22.8497504 23.3341744,22.3123519 24.0698986,21.3719045 C20.0458073,23.6942338 16.0728968,23.6238602 12.106384,21.4166877 C12.202348,21.6661942 12.6501801,22.1268215 13.2387594,22.4786896 C13.6929891,22.7473888 14.1856044,22.9649073 14.6718221,23.2080161 C14.6270389,23.2655945 14.5630629,23.355161 14.4926893,23.4447274 C14.3263516,23.6558482 14.1344236,23.8477763 13.9936764,24.0716923 C13.8081459,24.365982 13.5778323,24.4491508 13.2259642,24.4107652 C11.7801063,24.2444276 10.5069836,23.739017 9.46417459,22.696208 C9.08671611,22.3251471 8.97795689,21.9284958 9.00354729,21.3910973 C9.13149932,18.9344184 9.71368105,16.5864987 10.6413332,14.3217478 C10.7692853,14.0082653 10.9356229,13.7075781 11.0635749,13.3940956 C11.1531414,13.1701795 11.3066838,13.0230347 11.5050094,12.8950827 C12.4774448,12.2489249 13.5202539,11.7819 14.6782197,11.5835744 C14.914931,11.5451888 15.1516422,11.5132008 15.3947511,11.5004056 C15.4843175,11.494008 15.5802815,11.5643816 15.6634503,11.6347552 C14.7038101,11.9610329 13.7761579,12.3065034 12.9124817,12.8119139 C12.5670113,13.0102395 12.2407336,13.2469508 11.9080583,13.4644692 C11.8376847,13.5092524 11.7737087,13.5732284 11.6905399,13.643602 C15.7914024,11.685936 19.8730721,11.589972 23.9611393,13.5924212 C22.8671495,12.7095522 21.606822,12.1593585 20.2825185,11.7307192 C20.3784826,11.5323936 20.5128322,11.4876104 20.723953,11.5068032 C22.1570157,11.6411528 23.436536,12.1657561 24.6008995,12.9846491 C24.7096587,13.0614203 24.8120203,13.1701795 24.8759963,13.291734 C25.7844557,15.1278456 26.3922279,17.0535236 26.7376983,19.068768 C26.8976384,20.0092154 26.9808072,20.962458 27,21.9157006 C27,22.0372551 26.9552168,22.1843999 26.8784456,22.2803639 C26.1107334,23.2783897 25.0935148,23.8925595 23.8907657,24.2060419 C23.4301384,24.3275964 22.9439207,24.365982 22.4704982,24.429958 C22.393727,24.4427532 22.2849678,24.4171628 22.2401846,24.365982 C21.9203045,23.9757283 21.6196172,23.5982698 21.2933396,23.1952209 Z M15.1260518,20.6617708 C15.4715223,20.6617708 15.7786072,20.5530115 16.0473064,20.3354931 C16.4951385,19.9708298 16.6422834,19.4782145 16.712657,18.9152256 C16.8534042,17.7316693 15.5163055,16.8679931 14.4798941,17.3542109 C13.7505675,17.6996813 13.3667114,18.5889479 13.5970251,19.4206361 C13.8017483,20.1691555 14.4095205,20.6617708 15.1260518,20.6617708 Z M20.7495434,20.6873612 C20.9286763,20.642578 21.1206043,20.6233852 21.286942,20.5530115 C22.329751,20.1371675 22.6624263,18.7424904 21.9458949,17.8084406 C21.3765084,17.0727164 20.3145065,17.0023428 19.6619512,17.6676933 C19.2397095,18.0963326 19.1117575,18.6209359 19.1757335,19.2095153 C19.2780951,20.015613 19.9690361,20.6617708 20.7495434,20.6873612 Z" id="Shape" fill="#3F3F3F" fill-rule="nonzero"></path>
                </g>
            </g>
        </g>
    </g>
</svg>