<svg xmlns="http://www.w3.org/2000/svg" xmlns:xlink="http://www.w3.org/1999/xlink" width="240" height="152" viewBox="0 0 240 152">
  <defs>
    <rect id="empty-a" width="15.529" height="39.529" x="27.529" y="84.656" rx="2"/>
    <filter id="empty-b" width="164.4%" height="125.3%" x="-32.2%" y="-12.6%" filterUnits="objectBoundingBox">
      <feOffset dy="8" in="SourceAlpha" result="shadowOffsetInner1"/>
      <feComposite in="shadowOffsetInner1" in2="SourceAlpha" k2="-1" k3="1" operator="arithmetic" result="shadowInnerInner1"/>
      <feColorMatrix in="shadowInnerInner1" values="0 0 0 0 1   0 0 0 0 1   0 0 0 0 1  0 0 0 1 0"/>
    </filter>
    <rect id="empty-c" width="21.882" height="50.824" x=".171" y=".535"/>
    <rect id="empty-e" width="169.412" height="21.176" x="37.412" rx="2"/>
    <filter id="empty-f" width="105.9%" height="147.2%" x="-3%" y="-23.6%" filterUnits="objectBoundingBox">
      <feOffset dy="10" in="SourceAlpha" result="shadowOffsetInner1"/>
      <feComposite in="shadowOffsetInner1" in2="SourceAlpha" k2="-1" k3="1" operator="arithmetic" result="shadowInnerInner1"/>
      <feColorMatrix in="shadowInnerInner1" values="0 0 0 0 1   0 0 0 0 1   0 0 0 0 1  0 0 0 1 0"/>
    </filter>
  </defs>
  <g fill="none" fill-rule="evenodd" opacity=".8">
    <path stroke="#EEF1F6" stroke-width="2" d="M202.465242,52.691545 L202.294082,53.2728522 L201.699565,53.3901736 C197.899694,54.1400368 195.117647,57.4887424 195.117647,61.4117647 C195.117647,65.9259265 198.780485,69.5882353 203.292351,69.5882353 L230.825296,69.5882353 C235.340421,69.5882353 239,65.9282585 239,61.4117647 C239,58.4362519 237.396139,55.7407698 234.854153,54.2965666 L234.357964,54.0146623 L234.348278,53.4440669 C234.239995,47.0651287 229.03352,41.9411765 222.644118,41.9411765 C218.532506,41.9411765 214.790016,44.077158 212.671558,47.5137523 L212.258144,48.184398 L211.509366,47.9394336 C210.801017,47.707696 210.056285,47.5882353 209.294118,47.5882353 C206.116342,47.5882353 203.349164,49.6895004 202.465242,52.691545 Z" transform="matrix(-1 0 0 1 434.118 0)"/>
    <rect width="167.412" height="123.647" x="38.412" y="1" fill="#FFF" stroke="#CFD7E6" stroke-width="2" rx="2"/>
    <path fill="#FFF" stroke="#CFD7E6" stroke-width="2" d="M10.4598768,79.0777548 L10.3250935,79.6498955 L9.75963914,79.8104349 C4.61584764,81.2708202 1,85.9853565 1,91.4117647 C1,98.0715514 6.40107885,103.470588 13.0636968,103.470588 L51.8774797,103.470588 C58.5407257,103.470588 63.9411765,98.0726048 63.9411765,91.4117647 C63.9411765,86.598142 61.0939015,82.304995 56.76835,80.3848768 L56.1846314,80.1257634 L56.1742071,79.4872037 C56.026037,70.4107818 48.619979,63.1176471 39.5294118,63.1176471 C33.6969039,63.1176471 28.3857248,66.1403367 25.3689263,71.0076375 L24.9521583,71.6800507 L24.2018801,71.4292168 C23.1228205,71.0684641 21.9864558,70.8823529 20.8235294,70.8823529 C15.8577827,70.8823529 11.5830432,74.3100339 10.4598768,79.0777548 Z"/>
    <g stroke="#CFD7E6" stroke-dasharray="2 6" stroke-linecap="round" stroke-width="2" transform="translate(98.118 38.118)">
      <path d="M37.5948855 1.71232532C38.5966704 2.17259986 40.1301922 3.08961508 41.0003031 3.74560919L47.0741541 8.32480746C47.5137885 8.65625664 47.5900457 9.27974321 47.2546478 9.70454412 47.2546478 9.70454412 35.7594985 24.262462 29.6456801 32.0273437 28.7555898 33.1578068 26.4202665 36.1675092 26.4202665 36.1675092L18.0323989 48.5142463 3.82409947 42.8560416C2.7975147 42.4472223 2.53657482 41.4166904 3.22594773 40.5730402L35.6939338.838924632 37.5948855 1.71232532zM37.0098537 29.0803191C37.7145646 28.2310102 38.9439678 28.1594099 39.740068 28.9056464L46.4065312 35.1545558C47.2096761 35.9073957 47.1518322 37.0498389 46.2544693 37.7234367L4.33468507 69.1901663C3.44755873 69.8560801 3.30132526 69.7054282 4.00439264 68.8581L37.0098537 29.0803191z"/>
      <path fill="#FFF" d="M6.18217063,1.96797259 C6.3526618,0.881091342 7.39276037,0 8.49654584,0 L36.9395596,0 C38.0472626,0 38.471742,0.766604933 37.8922546,1.70482258 L22.9596724,25.8813843 C22.3781283,26.8229318 22.8041057,27.5862069 23.9023463,27.5862069 L37.7609397,27.5862069 C38.8631082,27.5862069 39.1830892,28.2616661 38.4571409,29.1166719 L4.54488748,69.0577703 C3.8272203,69.9030228 3.62873857,69.776536 4.0978474,68.783129 L16.1861283,43.1844166 C16.656902,42.1874839 16.1464633,41.3793103 15.0338991,41.3793103 L2.00464049,41.3793103 C0.897508117,41.3793103 0.138573992,40.4959011 0.308701583,39.4113378 L6.18217063,1.96797259 Z"/>
    </g>
    <g transform="scale(-1 1) rotate(45 -110.04 -153.729)">
      <rect width="8.471" height="52.235" x="31.059" y="67.765" fill="#FFF" stroke="#CFD7E6" stroke-width="2" rx="2"/>
      <use fill="#EEF1F6" xlink:href="#empty-a"/>
      <use fill="#000" filter="url(#empty-b)" xlink:href="#empty-a"/>
      <use stroke="#CFD7E6" stroke-width="2" xlink:href="#empty-a"/>
      <path fill="#FFF" stroke="#CFD7E6" stroke-width="2" d="M35.2941176,70.5882353 C15.8017147,70.5882353 -6.82121026e-13,54.7865206 -6.82121026e-13,35.2941176 C-6.82121026e-13,15.8017147 15.8017147,5.68434189e-13 35.2941176,5.68434189e-13 C54.7865206,5.68434189e-13 70.5882353,15.8017147 70.5882353,35.2941176 C70.5882353,54.7865206 54.7865206,70.5882353 35.2941176,70.5882353 Z M35.2941176,63.5294118 C50.88804,63.5294118 63.5294118,50.88804 63.5294118,35.2941176 C63.5294118,19.7001953 50.88804,7.05882353 35.2941176,7.05882353 C19.7001953,7.05882353 7.05882353,19.7001953 7.05882353,35.2941176 C7.05882353,50.88804 19.7001953,63.5294118 35.2941176,63.5294118 Z"/>
      <path fill="#EEF1F6" stroke="#CFD7E6" stroke-width="2" d="M35.2941176,63.5294118 C50.88804,63.5294118 63.5294118,50.88804 63.5294118,35.2941176 C63.5294118,19.7001953 50.88804,7.05882353 35.2941176,7.05882353 C19.7001953,7.05882353 7.05882353,19.7001953 7.05882353,35.2941176 C7.05882353,50.88804 19.7001953,63.5294118 35.2941176,63.5294118 Z" opacity=".4"/>
      <g transform="translate(10.175 1.12)">
        <mask id="empty-d" fill="#fff">
          <use xlink:href="#empty-c"/>
        </mask>
        <path stroke="#FFF" stroke-dasharray="50" stroke-linecap="round" stroke-width="6" d="M26.9238604,53.0415075 C37.449758,53.0415075 45.982684,44.5085816 45.982684,33.982684 C45.982684,23.4567864 37.449758,14.9238604 26.9238604,14.9238604 C16.3979629,14.9238604 7.86503691,23.4567864 7.86503691,33.982684 C7.86503691,44.5085816 16.3979629,53.0415075 26.9238604,53.0415075 Z" mask="url(#empty-d)"/>
      </g>
      <circle cx="29.476" cy="52.649" r="2.118" fill="#FFF"/>
    </g>
    <use fill="#EEF1F6" xlink:href="#empty-e"/>
    <use fill="#000" filter="url(#empty-f)" xlink:href="#empty-e"/>
    <rect width="167.412" height="19.176" x="38.412" y="1" stroke="#CFD7E6" stroke-linejoin="square" stroke-width="2" rx="2"/>
    <circle cx="48" cy="10.588" r="2.824" fill="#CFD7E6"/>
    <circle cx="57.882" cy="10.588" r="2.824" fill="#CFD7E6"/>
    <circle cx="67.765" cy="10.588" r="2.824" fill="#CFD7E6"/>
  </g>
</svg>
