<svg xmlns="http://www.w3.org/2000/svg" xmlns:xlink="http://www.w3.org/1999/xlink" width="16" height="16" viewBox="0 0 16 16">
  <defs>
    <path id="全屏-a" d="M15.0153846,0.615384615 L10.2461538,0.615384615 C9.93846154,0.615384615 9.84615385,0.892307692 10.0923077,1.13846154 L11.6,2.64615385 L8.83076923,5.41538462 C8.67692308,5.56923077 8.67692308,5.81538462 8.83076923,6 L9.96923077,7.13846154 C10.1230769,7.29230769 10.3692308,7.29230769 10.5538462,7.13846154 L13.3538462,4.33846154 L14.8615385,5.84615385 C15.1076923,6.09230769 15.3846154,6 15.3846154,5.69230769 L15.3846154,0.953846154 C15.3846154,0.769230769 15.2,0.615384615 15.0153846,0.615384615 L15.0153846,0.615384615 Z M1.07692308,15.3846154 L5.81538462,15.3846154 C6.12307692,15.3846154 6.21538462,15.0461538 5.96923077,14.8 L4.46153846,13.2615385 L7.23076923,10.4615385 C7.38461538,10.3076923 7.38461538,10.0307692 7.23076923,9.87692308 L6.09230769,8.73846154 C5.93846154,8.58461538 5.69230769,8.58461538 5.50769231,8.73846154 L2.73846154,11.5076923 L1.2,10 C0.923076923,9.75384615 0.615384615,9.84615385 0.615384615,10.1538462 L0.615384615,14.8923077 C0.615384615,15.1076923 0.861538462,15.3846154 1.07692308,15.3846154 L1.07692308,15.3846154 Z"/>
  </defs>
  <use fill="#9EA4AC" fill-rule="evenodd" xlink:href="#全屏-a"/>
</svg>
