<?xml version="1.0" encoding="UTF-8" standalone="no"?>
<svg width="36px" height="36px" viewBox="0 0 36 36" version="1.1" xmlns="http://www.w3.org/2000/svg" xmlns:xlink="http://www.w3.org/1999/xlink">
    <!-- Generator: Sketch 49.3 (51167) - http://www.bohemiancoding.com/sketch -->
    <title>github</title>
    <desc>Created with Sketch.</desc>
    <defs></defs>
    <g id="Symbols" stroke="none" stroke-width="1" fill="none" fill-rule="evenodd">
        <g id="footer" transform="translate(-567.000000, -20.000000)">
            <g id="Group-3" transform="translate(567.000000, 20.000000)">
                <g id="Group-2">
                    <path d="M15.7342056,27.3845095 C15.7342056,27.1277836 15.7222813,26.4309559 15.7222813,25.5140774 C12.7411962,26.1742299 12.1092062,24.0348467 12.1092062,24.0348467 C11.6203083,22.7634418 10.9167722,22.4211405 10.9167722,22.4211405 C9.93897632,21.7487629 10.9883182,21.7487629 10.9883182,21.7487629 C12.0615088,21.8221132 12.6338772,22.8856923 12.6338772,22.8856923 C13.5878244,24.5605237 15.1499129,24.0837469 15.7580543,23.8025708 C15.853449,23.0935181 16.1277088,22.6045162 16.4377417,22.3355651 C14.0528736,22.0543891 11.5487622,21.1130604 11.5487622,16.8954192 C11.5487622,15.6973646 11.9661141,14.7071358 12.6577259,13.9369578 C12.5504068,13.6557818 12.1807522,12.5433025 12.7650449,11.0273967 C12.7650449,11.0273967 13.6712948,10.7339955 15.7103569,12.152101 C16.5689094,11.9076 17.4870836,11.7853496 18.3933334,11.7853496 C19.2995833,11.7853496 20.2177575,11.9076 21.0763099,12.152101 C23.1272964,10.7217705 24.0216219,11.0273967 24.0216219,11.0273967 C24.6059146,12.5433025 24.2362601,13.6557818 24.128941,13.9369578 C24.8205527,14.7071358 25.2259803,15.6851396 25.2259803,16.8954192 C25.2259803,21.1252855 22.7218689,22.0543891 20.3250765,22.3233401 C20.7066554,22.6656414 21.0524613,23.338019 21.0524613,24.3649229 C21.0524613,25.8319286 21.0405369,27.0177581 21.0405369,27.3845095 C21.0405369,27.6779107 15.7342056,27.6656856 15.7342056,27.3845095 Z" id="Shape" fill="#3F3F3F" fill-rule="nonzero"></path>
                    <circle id="Oval-8" stroke="#E5EDF3" cx="18" cy="18" r="17"></circle>
                </g>
            </g>
        </g>
    </g>
</svg>