<?xml version="1.0" encoding="UTF-8" standalone="no"?>
<svg width="14px" height="15px" viewBox="0 0 14 15" version="1.1" xmlns="http://www.w3.org/2000/svg" xmlns:xlink="http://www.w3.org/1999/xlink">
    <!-- Generator: Sketch 49.3 (51167) - http://www.bohemiancoding.com/sketch -->
    <title>Hush</title>
    <desc>Created with Sketch.</desc>
    <defs></defs>
    <g id="Symbols" stroke="none" stroke-width="1" fill="none" fill-rule="evenodd" fill-opacity="0.6">
        <g id="交易列表" transform="translate(-32.000000, -17.000000)" fill="#5E6875">
            <g id="Group" transform="translate(32.000000, 17.000000)">
                <path d="M3.18162,1.10526316 L3.18221885,1.10526316 L3.18221885,0.519999981 C3.18221885,0.232811922 3.41503077,-1.27951204e-15 3.70221883,-1.33226763e-15 L4.96302175,-6.66133815e-16 C5.19923685,-7.09525825e-16 5.40577535,0.159213621 5.46589683,0.38764957 L5.65476372,1.10526316 L8.86486174,1.10526316 L8.86486174,2.90405815 C8.86486174,3.19124621 9.09767366,3.42405813 9.38486172,3.42405813 L9.86145047,3.42405813 C10.1486385,3.42405813 10.3814505,3.19124621 10.3814505,2.90405815 L10.3814505,1.10526316 L10.3814505,0.527105758 C10.3814505,0.239917699 10.6142624,0.00710577714 10.9014504,0.00710577714 L12.1639806,0.00710577714 C12.3993886,0.00710577714 12.6054332,0.165254298 12.6662989,0.392657639 L12.8570315,1.10526316 L12.96,1.10526316 C13.5343762,1.10526316 14,1.570887 14,2.14526312 L14,13.3284211 C14,13.9027972 13.5343762,14.3684211 12.96,14.3684211 L1.03999996,14.3684211 C0.465623843,14.3684211 2.92385392e-16,13.9027972 2.22044605e-16,13.3284211 L-2.22044605e-16,2.14526312 C-2.92385392e-16,1.570887 0.465623843,1.10526316 1.03999996,1.10526316 L1.66503128,1.10526316 L1.66503128,2.90405815 C1.66503128,3.19124621 1.8978432,3.42405813 2.18503126,3.42405813 L2.66162001,3.42405813 C2.94880807,3.42405813 3.18162,3.19124621 3.18162,2.90405815 L3.18162,1.10526316 Z M10.5667594,5.97940539 C10.2795713,5.97940539 10.0467594,6.21221732 10.0467594,6.49940539 L10.0467594,7.93519478 C10.0467594,8.22238285 10.2795713,8.45519478 10.5667594,8.45519478 L12.0025488,8.45519478 C12.2897368,8.45519478 12.5225488,8.22238285 12.5225488,7.93519478 L12.5225488,6.49940539 C12.5225488,6.21221732 12.2897368,5.97940539 12.0025488,5.97940539 L10.5667594,5.97940539 Z M6.35264522,5.97940539 C6.06545715,5.97940539 5.83264522,6.21221732 5.83264522,6.49940539 L5.83264522,7.93519478 C5.83264522,8.22238285 6.06545715,8.45519478 6.35264522,8.45519478 L7.78843462,8.45519478 C8.07562269,8.45519478 8.30843462,8.22238285 8.30843462,7.93519478 L8.30843462,6.49940539 C8.30843462,6.21221732 8.07562269,5.97940539 7.78843462,5.97940539 L6.35264522,5.97940539 Z M2.13853109,5.97940539 C1.85134302,5.97940539 1.61853109,6.21221732 1.61853109,6.49940539 L1.61853109,7.93519478 C1.61853109,8.22238285 1.85134302,8.45519478 2.13853109,8.45519478 L3.57432049,8.45519478 C3.86150856,8.45519478 4.09432049,8.22238285 4.09432049,7.93519478 L4.09432049,6.49940539 C4.09432049,6.21221732 3.86150856,5.97940539 3.57432049,5.97940539 L2.13853109,5.97940539 Z M6.35264522,10.3659594 C6.06545715,10.3659594 5.83264522,10.5987713 5.83264522,10.8859594 L5.83264522,12.3217488 C5.83264522,12.6089369 6.06545715,12.8417488 6.35264522,12.8417488 L7.78843462,12.8417488 C8.07562269,12.8417488 8.30843462,12.6089369 8.30843462,12.3217488 L8.30843462,10.8859594 C8.30843462,10.5987713 8.07562269,10.3659594 7.78843462,10.3659594 L6.35264522,10.3659594 Z M2.13853109,10.3659594 C1.85134302,10.3659594 1.61853109,10.5987713 1.61853109,10.8859594 L1.61853109,12.3217488 C1.61853109,12.6089369 1.85134302,12.8417488 2.13853109,12.8417488 L3.57432049,12.8417488 C3.86150856,12.8417488 4.09432049,12.6089369 4.09432049,12.3217488 L4.09432049,10.8859594 C4.09432049,10.5987713 3.86150856,10.3659594 3.57432049,10.3659594 L2.13853109,10.3659594 Z" id="Combined-Shape"></path>
            </g>
        </g>
    </g>
</svg>