<?xml version="1.0" encoding="UTF-8"?>
<svg width="16px" height="16px" viewBox="0 0 16 16" version="1.1" xmlns="http://www.w3.org/2000/svg" xmlns:xlink="http://www.w3.org/1999/xlink">
    <!-- Generator: Sketch 51.2 (57519) - http://www.bohemiancoding.com/sketch -->
    <title>pie</title>
    <desc>Created with Sketch.</desc>
    <defs></defs>
    <g id="Page-1" stroke="none" stroke-width="1" fill="none" fill-rule="evenodd">
        <g id="token详情-账户列表" transform="translate(-153.000000, -626.000000)">
            <g id="Group-3" transform="translate(141.000000, 618.000000)">
                <rect id="Rectangle-4-Copy" stroke="#005CC7" fill="#E6EEFF" x="0.5" y="0.5" width="131" height="31" rx="4"></rect>
                <g id="icons/utility/chart" transform="translate(13.000000, 10.000000)" fill="#005CC7">
                    <path d="M13.0094427,5.15374174 L6.7017504,8.63066481 C6.27098117,8.84604943 5.77867348,8.53835712 5.77867348,8.07681866 L5.77867348,0.538357121 C5.77867348,0.230664814 5.47098117,-0.0154890326 5.19405809,0.0768186597 C2.11713502,0.938357121 -0.0982495977,3.92297251 0.270981172,7.33835712 C0.60944271,10.4460494 3.1017504,12.9691264 6.24021194,13.3075879 C10.3325196,13.7383571 13.7786735,10.5691264 13.7786735,6.56912635 C13.7786735,6.19989558 13.7479042,5.83066481 13.6863658,5.46143404 C13.6248273,5.15374174 13.2863658,4.99989558 13.0094427,5.15374174 L13.0094427,5.15374174 Z" id="Mask"></path>
                    <path d="M7.53251963,6.56912635 L13.5940581,3.33835712 C13.9632889,3.15374174 14.0863658,2.66143404 13.8402119,2.32297251 C12.4555966,0.415280198 10.3017504,-0.969335186 7.84021194,-1.36933519 C7.40944271,-1.46164288 7.00944271,-1.12318134 7.00944271,-0.69241211 L7.00944271,6.26143404 C7.00944271,6.53835712 7.28636579,6.69220328 7.53251963,6.56912635 L7.53251963,6.56912635 Z" id="Path"></path>
                </g>
            </g>
        </g>
    </g>
</svg>