<svg xmlns="http://www.w3.org/2000/svg" xmlns:xlink="http://www.w3.org/1999/xlink" width="16" height="16" viewBox="0 0 16 16">
  <defs>
    <path id="放大-a" d="M9.40659341,9.05494505 L15.2087912,9.05494505 C15.4901099,9.05494505 15.7362637,8.80879121 15.7362637,8.52747253 L15.7362637,7.47252747 C15.7362637,7.19120879 15.4901099,6.94505495 15.2087912,6.94505495 L9.40659341,6.94505495 C9.1956044,6.94505495 9.05494505,6.8043956 9.05494505,6.59340659 L9.05494505,0.791208791 C9.05494505,0.50989011 8.80879121,0.263736264 8.52747253,0.263736264 L7.47252747,0.263736264 C7.19120879,0.263736264 6.94505495,0.50989011 6.94505495,0.791208791 L6.94505495,6.59340659 C6.94505495,6.8043956 6.8043956,6.94505495 6.59340659,6.94505495 L0.791208791,6.94505495 C0.50989011,6.94505495 0.263736264,7.19120879 0.263736264,7.47252747 L0.263736264,8.52747253 C0.263736264,8.80879121 0.50989011,9.05494505 0.791208791,9.05494505 L6.59340659,9.05494505 C6.8043956,9.05494505 6.94505495,9.1956044 6.94505495,9.40659341 L6.94505495,15.2087912 C6.94505495,15.4901099 7.19120879,15.7362637 7.47252747,15.7362637 L8.52747253,15.7362637 C8.80879121,15.7362637 9.05494505,15.4901099 9.05494505,15.2087912 L9.05494505,9.40659341 C9.05494505,9.1956044 9.1956044,9.05494505 9.40659341,9.05494505 Z"/>
  </defs>
  <use fill="#9EA4AC" fill-rule="evenodd" xlink:href="#放大-a"/>
</svg>
