<?xml version="1.0" encoding="UTF-8"?>
<svg width="26px" height="30px" viewBox="0 0 26 30" version="1.1" xmlns="http://www.w3.org/2000/svg" xmlns:xlink="http://www.w3.org/1999/xlink">
    <!-- Generator: Sketch 52.5 (67469) - http://www.bohemiancoding.com/sketch -->
    <title>个人账户详情 copy</title>
    <desc>Created with Sketch.</desc>
    <defs>
        <linearGradient x1="0%" y1="20.6411699%" x2="81.911548%" y2="85.7404032%" id="linearGradient-1">
            <stop stop-color="#FFA17D" offset="0%"></stop>
            <stop stop-color="#EF4187" offset="100%"></stop>
        </linearGradient>
    </defs>
    <g id="Page-1" stroke="none" stroke-width="1" fill="none" fill-rule="evenodd">
        <g id="个人账户详情-copy" transform="translate(-997.000000, -245.000000)">
            <g id="配额合约" transform="translate(997.000000, 245.000000)">
                <path d="M26,19.9944813 L26,20.4333443 C26,22.0018566 25.1019594,23.4512766 23.6440328,24.2354 L15.3560385,28.6935914 C13.8981119,29.4778476 12.1018881,29.4778476 10.6439615,28.6935914 L2.35610973,24.2354 C0.898183114,23.4512766 0,22.0018566 0,20.4333443 L0,19.994367 C0.45620745,20.8311758 1.16737423,21.5437043 2.0697146,22.0290141 L10.3575328,26.4871875 C11.9927005,27.3667862 14.0072995,27.3667862 15.64247,26.487186 L23.9304578,22.028998 C24.8327267,21.5437266 25.5438262,20.8312482 26,19.9944813 Z M0,17.7647226 L0,8.84833968 C0,7.27996017 0.898183114,5.83067288 2.35610973,5.04628398 L10.6439615,0.588092529 C12.1018881,-0.196030843 13.8981119,-0.196030843 15.3560385,0.588092529 L23.6440328,5.04628398 C25.1019594,5.83067288 26,7.27996017 26,8.84833968 L26,17.7647226 C26,19.3332349 25.1019594,20.7826549 23.6440328,21.5667783 L15.3560385,26.0249697 C13.8981119,26.8092259 12.1018881,26.8092259 10.6439615,26.0249697 L2.35610973,21.5667783 C0.898183114,20.7826549 0,19.3332349 0,17.7647226 Z" id="合并形状" fill="url(#linearGradient-1)"></path>
                <g id="分组" transform="translate(6.000000, 6.000000)">
                    <polygon id="Fill-2" fill="#FFFFFF" points="9.73056228 0.531964671 11.5469036 2.34830599 9.73056228 2.34830599"></polygon>
                    <path d="M2.91914611,0.411991617 L9.08184671,0.411991617 L9.08184671,3.00677605 C9.08184671,3.20138683 9.21161317,3.33115329 9.40622395,3.33115329 L12.0010084,3.33115329 L12.0010084,9.16947665 L9.7306012,9.16947665 C9.66567904,9.16947665 9.60083473,9.16947665 9.56837365,9.20193772 L8.01148743,10.1425305 L4.96255928,10.1425305 L3.40567305,9.20193772 C3.37321198,9.16947665 3.30836766,9.16947665 3.24352335,9.16947665 L2.91914611,9.16947665 L2.91914611,0.411991617 Z" id="Fill-3" fill="#FFFFFF"></path>
                    <polygon id="Fill-5" fill="#FFFFFF" points="0.973053892 9.16946108 2.27048503 9.16946108 2.27048503 1.70940719 0.973053892 1.70940719"></polygon>
                    <path d="M12.9740234,13.0518988 L-5.44910181e-05,13.0518988 L-5.44910181e-05,9.48406048 L3.14617904,9.48406048 L4.70306527,10.4246533 C4.73552635,10.4571144 4.80037066,10.4571144 4.86521497,10.4571144 L8.10875389,10.4571144 C8.17367605,10.4571144 8.23852036,10.4571144 8.27098144,10.4246533 L9.82786766,9.48406048 L12.9740234,9.48406048 L12.9740234,13.0518988 Z" id="Fill-7" fill="#FFFFFF"></path>
                    <polygon id="Fill-1" fill="#F46383" points="4.86526946 12.0788683 8.10880838 12.0788683 8.10880838 11.4301916 4.86526946 11.4301916"></polygon>
                    <path d="M4.67064311,2.9645994 L5.18963114,2.70514431 L5.70861916,2.9645994 C5.80592455,2.99706048 5.90322994,2.99706048 6.00053533,2.9645994 L6.51944551,2.70514431 L7.03843353,2.9645994 C7.03843353,2.99706048 7.07089461,2.99706048 7.13573892,2.99706048 C7.20066108,2.99706048 7.23304431,2.99706048 7.26550539,2.9645994 L7.75203234,2.70514431 L8.27102036,2.9645994 L8.56293653,2.38076707 L7.91418204,2.05638982 C7.81687665,2.02400659 7.71957126,2.02400659 7.62226587,2.05638982 L7.13573892,2.31592275 L6.61682874,2.05638982 C6.51944551,2.02400659 6.42214012,2.02400659 6.32483473,2.05638982 L5.83830778,2.31592275 L5.3193976,2.05638982 C5.22209222,2.02400659 5.12478683,2.02400659 5.02748144,2.05638982 L4.54087665,2.31592275 L4.0543497,2.05638982 L3.76243353,2.64022216 L4.41118802,2.9645994 C4.47603234,2.99706048 4.6057988,2.99706048 4.67064311,2.9645994" id="Fill-8" fill="#F98B8B"></path>
                    <path d="M4.67064311,4.91070719 L5.18963114,4.6512521 L5.70861916,4.91070719 C5.80592455,4.94316826 5.90322994,4.94316826 6.00053533,4.91070719 L6.51944551,4.6512521 L6.58436766,4.68363533 L7.0060503,4.91070719 C7.03843353,4.94316826 7.07089461,4.94316826 7.13573892,4.94316826 C7.20066108,4.94316826 7.23304431,4.94316826 7.26550539,4.91070719 L7.75203234,4.6512521 L8.27102036,4.91070719 C8.36832575,4.94316826 8.46563114,4.94316826 8.56293653,4.91070719 L9.08184671,4.6512521 L9.60083473,4.91070719 C9.63329581,4.94316826 9.66567904,4.94316826 9.7306012,4.94316826 C9.79544551,4.94316826 9.82790659,4.94316826 9.86028982,4.91070719 L10.3468168,4.6512521 L10.8657269,4.91070719 L11.1576431,4.32687485 L10.5089665,4.0024976 C10.4116611,3.97011437 10.3143557,3.97011437 10.2170503,4.0024976 L9.7306012,4.26203054 L9.21161317,4.0024976 C9.11430778,3.97011437 9.0170024,3.97011437 8.91969701,4.0024976 L8.43317006,4.26203054 L7.91418204,4.0024976 C7.8817988,3.97011437 7.84933772,3.97011437 7.78449341,3.97011437 C7.71957126,3.97011437 7.68718802,3.97011437 7.62226587,4.0024976 L7.46011617,4.09980299 L7.13573892,4.26203054 L6.61682874,4.0024976 C6.51944551,3.97011437 6.42214012,3.97011437 6.32483473,4.0024976 L5.83830778,4.26203054 L5.3193976,4.0024976 C5.22209222,3.97011437 5.12478683,3.97011437 5.02748144,4.0024976 L4.54087665,4.26203054 L4.0543497,4.0024976 L3.76243353,4.58632994 L4.41118802,4.91070719 C4.47603234,4.94316826 4.6057988,4.94316826 4.67064311,4.91070719" id="Fill-9" fill="#F98B8B"></path>
                </g>
            </g>
        </g>
    </g>
</svg>