<?xml version="1.0" encoding="UTF-8" standalone="no"?>
<svg width="36px" height="36px" viewBox="0 0 36 36" version="1.1" xmlns="http://www.w3.org/2000/svg" xmlns:xlink="http://www.w3.org/1999/xlink">
    <!-- Generator: Sketch 49.3 (51167) - http://www.bohemiancoding.com/sketch -->
    <title>reddit</title>
    <desc>Created with Sketch.</desc>
    <defs></defs>
    <g id="Symbols" stroke="none" stroke-width="1" fill="none" fill-rule="evenodd">
        <g id="footer" transform="translate(-783.000000, -20.000000)">
            <g id="Group-3" transform="translate(567.000000, 20.000000)">
                <g id="twitter" transform="translate(216.000000, 0.000000)">
                    <path d="M27.5,17.7466563 C27.5,16.4987422 26.4757813,15.483875 25.2164375,15.483875 C24.671375,15.483875 24.1708437,15.6744687 23.7777813,15.9916797 C22.3854375,15.1245078 20.6184375,14.6020078 18.724375,14.4914219 L19.712375,11.3962031 L22.4275938,12.0298828 C22.4988438,13.0094219 23.3253438,13.7848594 24.33175,13.7848594 C25.3844688,13.7848594 26.24125,12.9359453 26.24125,11.8921328 C26.24125,10.8490625 25.3844688,10 24.33175,10 C23.5955,10 22.9554375,10.4153281 22.6365938,11.0219922 L19.4814062,10.2858906 C19.2171875,10.2241406 18.95,10.3748047 18.8680625,10.6313047 L17.641375,14.4731641 C15.6006563,14.5225937 13.68225,15.0467266 12.1877813,15.9646641 C11.8000625,15.6640781 11.3125937,15.4840234 10.7835625,15.4840234 C9.52421875,15.483875 8.5,16.4987422 8.5,17.7466563 C8.5,18.5179375 8.891875,19.1998594 9.48859375,19.6082109 C9.46365625,19.7876719 9.45059375,19.9683203 9.45059375,20.1511953 C9.45059375,21.7108281 10.3655625,23.1616563 12.026875,24.2360469 C13.6193125,25.2662031 15.727125,25.8333828 17.9614062,25.8333828 C20.1956875,25.8333828 22.3035,25.2662031 23.8959375,24.2360469 C25.55725,23.1618047 26.4722187,21.7109766 26.4722187,20.1511953 C26.4722187,19.9846484 26.4609375,19.8194375 26.4401563,19.6552656 C27.0766562,19.2532969 27.5,18.5479219 27.5,17.7466563 M24.33175,11.028375 C24.8126875,11.028375 25.2039687,11.4160937 25.2039687,11.8919844 C25.2039687,12.3684687 24.8126875,12.7561875 24.33175,12.7561875 C23.8508125,12.7561875 23.4595312,12.3684687 23.4595312,11.8919844 C23.4595312,11.4160937 23.8508125,11.028375 24.33175,11.028375 M13.8876875,19.1462734 C13.8876875,18.4432734 14.4832188,17.8530859 15.19275,17.8530859 C15.902875,17.8530859 16.4788125,18.443125 16.4788125,19.1462734 C16.4788125,19.8498672 15.902875,20.4206094 15.19275,20.4206094 C14.4832188,20.4206094 13.8876875,19.8498672 13.8876875,19.1462734 M21.127875,22.8940234 C20.4664375,23.5487812 19.446375,23.8671797 18.0095,23.8671797 C18.0065313,23.8671797 18.0029688,23.8665859 17.9994062,23.8665859 C17.9964375,23.8665859 17.992875,23.8671797 17.9893125,23.8671797 C16.5524375,23.8671797 15.5329688,23.5489297 14.872125,22.8940234 C14.6690625,22.6927422 14.6690625,22.3675156 14.872125,22.1668281 C15.0745938,21.9661406 15.4029375,21.9661406 15.606,22.1668281 C16.062,22.6186719 16.8415938,22.8386562 17.9893125,22.8386562 C17.992875,22.8386562 17.9964375,22.83925 17.9994062,22.83925 C18.0029688,22.83925 18.0065313,22.8386562 18.0095,22.8386562 C19.1572187,22.8386562 19.9374062,22.6186719 20.394,22.1668281 C20.5970625,21.9655469 20.9254063,21.9661406 21.127875,22.1668281 C21.3303437,22.3679609 21.3303437,22.6933359 21.127875,22.8940234 M20.82625,20.4206094 C20.116125,20.4206094 19.5194063,19.8498672 19.5194063,19.1462734 C19.5194063,18.4426797 20.116125,17.8530859 20.82625,17.8530859 C21.536375,17.8530859 22.1123125,18.4425312 22.1123125,19.1462734 C22.1123125,19.8498672 21.536375,20.4206094 20.82625,20.4206094" id="Reddit_1_" fill="#3F3F3F"></path>
                    <circle id="Oval-8-Copy" stroke="#E5EDF3" cx="18" cy="18" r="17"></circle>
                </g>
            </g>
        </g>
    </g>
</svg>