<?xml version="1.0" encoding="UTF-8"?>
<svg width="26px" height="30px" viewBox="0 0 26 30" version="1.1" xmlns="http://www.w3.org/2000/svg" xmlns:xlink="http://www.w3.org/1999/xlink">
    <!-- Generator: Sketch 52.5 (67469) - http://www.bohemiancoding.com/sketch -->
    <title>个人账户详情 copy</title>
    <desc>Created with Sketch.</desc>
    <defs>
        <linearGradient x1="0%" y1="-209.814525%" x2="146.966783%" y2="201.735931%" id="linearGradient-1">
            <stop stop-color="#FFFFFF" offset="0%"></stop>
            <stop stop-color="#000000" offset="100%"></stop>
        </linearGradient>
        <linearGradient x1="-6.06111789%" y1="-10.1562864%" x2="211.019522%" y2="212.113165%" id="linearGradient-2">
            <stop stop-color="#FFFFFF" offset="0%"></stop>
            <stop stop-color="#000000" offset="100%"></stop>
        </linearGradient>
    </defs>
    <g id="Page-1" stroke="none" stroke-width="1" fill="none" fill-rule="evenodd">
        <g id="个人账户详情-copy" transform="translate(-855.000000, -184.000000)">
            <g id="出块灰" transform="translate(855.000000, 184.000000)">
                <path d="M26,20.0001143 L26,20.4389773 C26,22.0074896 25.1019594,23.4569096 23.6440328,24.241033 L15.3560385,28.6992244 C13.8981119,29.4834806 12.1018881,29.4834806 10.6439615,28.6992244 L2.35610973,24.241033 C0.898183114,23.4569096 0,22.0074896 0,20.4389773 L0,20 C0.45620745,20.8368088 1.16737423,21.5493373 2.0697146,22.0346472 L10.3575328,26.4928205 C11.9927005,27.3724192 14.0072995,27.3724192 15.64247,26.492819 L23.9304578,22.034631 C24.8327267,21.5493597 25.5438262,20.8368812 26,20.0001143 Z" id="Combined-Shape" fill="url(#linearGradient-1)"></path>
                <path d="M0,17.7647226 C0,19.3332349 0.898183114,20.7826549 2.35610973,21.5667783 L10.6439615,26.0249697 C12.1018881,26.8092259 13.8981119,26.8092259 15.3560385,26.0249697 L23.6440328,21.5667783 C25.1019594,20.7826549 26,19.3332349 26,17.7647226 L26,8.84833968 C26,7.27996017 25.1019594,5.83067288 23.6440328,5.04628398 L15.3560385,0.588092529 C13.8981119,-0.196030843 12.1018881,-0.196030843 10.6439615,0.588092529 L2.35610973,5.04628398 C0.898183114,5.83067288 0,7.27996017 0,8.84833968 L0,17.7647226 Z" id="Fill-470-Copy-4" fill="url(#linearGradient-2)"></path>
                <path d="M16.4164331,18.1963057 L19.0512739,16.8788854 L19.0512739,14.727293 L16.4164331,15.8525796 L16.4164331,18.1963057 Z M15.9760828,15.083758 L18.7471656,13.8969427 L15.9760828,12.7120382 L13.205,13.8969427 L15.9760828,15.083758 Z M12.902707,13.0740446 L15.5375478,11.9432166 L15.5375478,10.1181847 L12.902707,11.2452866 L12.902707,13.0740446 Z M12.464172,10.4727389 L15.490828,9.17394904 L12.464172,7.87707006 L9.43742038,9.17394904 L12.464172,10.4727389 Z M9.39079618,18.1963057 L12.0256369,16.8788854 L12.0256369,14.727293 L9.39079618,15.8525796 L9.39079618,18.1963057 Z M8.95226115,15.083758 L11.7233439,13.8969427 L8.95226115,12.7120382 L6.18117834,13.8969427 L8.95226115,15.083758 Z M19.9283439,14.0275478 L19.9283439,16.8807006 C19.9283439,17.0468471 19.883535,17.1998089 19.7977389,17.3397771 C19.7100318,17.4816561 19.5924204,17.5898089 19.4394586,17.6626115 L16.3660828,19.2002548 C16.2503822,19.2636943 16.1215924,19.2972293 15.9760828,19.2972293 C15.8304777,19.2972293 15.6998726,19.2655096 15.5860828,19.2002548 L12.512707,17.6626115 C12.4939809,17.6532484 12.4790764,17.6439809 12.464172,17.6365287 C12.4548089,17.6457962 12.4379936,17.6551592 12.4156369,17.6626115 L9.34226115,19.2002548 C9.22656051,19.2636943 9.0977707,19.2972293 8.95226115,19.2972293 C8.80484076,19.2972293 8.67605096,19.2655096 8.56226115,19.2002548 L5.48888535,17.6626115 C5.33773885,17.5898089 5.2183121,17.4816561 5.1306051,17.3397771 C5.04289809,17.1979936 5,17.0449363 5,16.8807006 L5,14.0275478 C5,13.8540446 5.04853503,13.693535 5.14923567,13.5480255 C5.24812102,13.4006051 5.37691083,13.2904459 5.53550955,13.2177389 L8.51191083,11.9432166 L8.51191083,9.19640127 C8.51191083,9.02280255 8.56035032,8.86238854 8.6611465,8.71678344 C8.76003185,8.56936306 8.88882166,8.45929936 9.04742038,8.38649682 L12.1207962,7.06907643 C12.2253185,7.02426752 12.3410191,7 12.4659873,7 C12.5891401,7 12.7048408,7.02426752 12.8112739,7.06907643 L15.8846497,8.38649682 C16.0450637,8.45929936 16.1756688,8.57127389 16.2709236,8.71678344 C16.3698089,8.86420382 16.4201592,9.02471338 16.4201592,9.19640127 L16.4201592,11.9413057 L19.396465,13.215828 C19.5626115,13.2886306 19.6913057,13.4006051 19.786465,13.5461146 C19.8817197,13.6917197 19.9283439,13.8521338 19.9283439,14.0275478 Z" id="Fill-1" fill="#FFFFFF"></path>
            </g>
        </g>
    </g>
</svg>