<svg xmlns="http://www.w3.org/2000/svg" width="26" height="30" viewBox="0 0 26 30">
  <defs>
    <linearGradient id="sbp2-a" x1="100%" x2="-145.1%" y1="105.482%" y2="-331.782%">
      <stop offset="0%" stop-color="#1B3BD8"/>
      <stop offset="26.033%" stop-color="#176CE0"/>
      <stop offset="49.184%" stop-color="#0B92E7"/>
      <stop offset="71.324%" stop-color="#0BB6EB"/>
      <stop offset="100%" stop-color="#00E0F2"/>
    </linearGradient>
    <linearGradient id="sbp2-b" x1="118.891%" x2="0%" y1="92.29%" y2="0%">
      <stop offset="0%" stop-color="#1B3BD8"/>
      <stop offset="31.474%" stop-color="#176CE0"/>
      <stop offset="49.184%" stop-color="#0B92E7"/>
      <stop offset="71.324%" stop-color="#0BB6EB"/>
      <stop offset="100%" stop-color="#00E0F2"/>
    </linearGradient>
  </defs>
  <g fill="none" fill-rule="evenodd">
    <path fill="url(#sbp2-a)" d="M26,19.9944813 L26,20.4333443 C26,22.0018566 25.1019594,23.4512766 23.6440328,24.2354 L15.3560385,28.6935914 C13.8981119,29.4778476 12.1018881,29.4778476 10.6439615,28.6935914 L2.35610973,24.2354 C0.898183114,23.4512766 0,22.0018566 0,20.4333443 L0,19.994367 C0.45620745,20.8311758 1.16737423,21.5437043 2.0697146,22.0290141 L10.3575328,26.4871875 C11.9927005,27.3667862 14.0072995,27.3667862 15.64247,26.487186 L23.9304578,22.028998 C24.8327267,21.5437266 25.5438262,20.8312482 26,19.9944813 Z"/>
    <path fill="url(#sbp2-b)" d="M0,17.7647226 C0,19.3332349 0.898183114,20.7826549 2.35610973,21.5667783 L10.6439615,26.0249697 C12.1018881,26.8092259 13.8981119,26.8092259 15.3560385,26.0249697 L23.6440328,21.5667783 C25.1019594,20.7826549 26,19.3332349 26,17.7647226 L26,8.84833968 C26,7.27996017 25.1019594,5.83067288 23.6440328,5.04628398 L15.3560385,0.588092529 C13.8981119,-0.196030843 12.1018881,-0.196030843 10.6439615,0.588092529 L2.35610973,5.04628398 C0.898183114,5.83067288 0,7.27996017 0,8.84833968 L0,17.7647226 Z"/>
    <path fill="#FFF" d="M3.66322545,17.9086695 C3.61607119,17.1438693 3.56166325,16.5316792 3.5,16.072081 C3.90625203,16.2516115 4.26806482,16.3763834 4.58544922,16.4464003 C4.90283362,16.5164173 5.1812209,16.5514252 5.42061942,16.5514252 C5.73619019,16.5514252 5.98737351,16.5056456 6.1741769,16.414085 C6.36098029,16.3225244 6.45438058,16.1869809 6.45438058,16.0074503 C6.45438058,15.9464099 6.44531259,15.8880633 6.42717634,15.8324089 C6.40904009,15.7767544 6.37458173,15.7139196 6.32380022,15.6439027 C6.27301872,15.5738858 6.2004748,15.4975864 6.10616629,15.4150024 L5.08328683,14.5317164 C4.84388831,14.3306421 4.6770373,14.1852246 4.58272879,14.0954593 C4.39048453,13.9123381 4.2408627,13.7417866 4.13385882,13.5837997 C4.02685493,13.4258128 3.94887022,13.2651354 3.89990234,13.1017625 C3.85093446,12.9383897 3.82645089,12.7651453 3.82645089,12.5820241 C3.82645089,12.3629969 3.86544325,12.148461 3.94342913,11.9384103 C4.02141501,11.7283595 4.13839208,11.5317765 4.29436384,11.3486553 C4.4503356,11.1655341 4.65708577,11.0075496 4.91462054,10.874697 C5.17215531,10.7418443 5.44782219,10.6511828 5.74162946,10.6027095 C6.03543674,10.5542363 6.33830759,10.53 6.65025112,10.53 C7.26325641,10.53 7.93066045,10.6000159 8.65248326,10.7400497 C8.66336501,10.9878019 8.6760602,11.2149047 8.6905692,11.4213648 C8.7050782,11.627825 8.73953656,11.9895736 8.79394531,12.5066217 C8.46023829,12.3737691 8.15555383,12.2813122 7.87988281,12.2292483 C7.60421179,12.1771845 7.36663046,12.1511529 7.1671317,12.1511529 C6.88420617,12.1511529 6.64934524,12.203216 6.46254185,12.3073438 C6.27573846,12.4114715 6.18233817,12.5407316 6.18233817,12.6951278 C6.18233817,12.7669401 6.19684695,12.8369559 6.22586496,12.9051776 C6.25488296,12.9733992 6.3092909,13.0532891 6.3890904,13.1448497 C6.46888991,13.2364103 6.57407859,13.3369459 6.7046596,13.4464595 C6.83524061,13.5559732 7.04017717,13.7184459 7.31947545,13.9338826 L7.71121652,14.2408783 C7.82728853,14.3342342 7.95242678,14.4473368 8.08663504,14.5801894 C8.2208433,14.713042 8.33691357,14.8440974 8.43484933,14.9733594 C8.53278509,15.1026214 8.6080494,15.2211098 8.66064453,15.3288281 C8.71323966,15.4365465 8.75223202,15.5451608 8.77762277,15.6546745 C8.80301352,15.7641881 8.81570871,15.8817789 8.81570871,16.0074503 C8.81570871,16.3306053 8.73772399,16.6384956 8.58175223,16.9311304 C8.42578047,17.2237653 8.20452152,17.4643326 7.91796875,17.6528397 C7.63141598,17.8413468 7.31675674,17.9732998 6.97398158,18.0487027 C6.63120643,18.1241055 6.26939365,18.1618063 5.88853237,18.1618063 C5.30091782,18.1618063 4.55915627,18.0774282 3.66322545,17.9086695 Z M9.16646204,18.0217732 C9.2426343,17.2318387 9.29341504,16.6106722 9.31880579,16.1582552 C9.3550783,15.54067 9.39044346,14.6932985 9.42490233,13.6161151 C9.45936121,12.5389316 9.47659039,11.7795287 9.47659039,11.3378835 C9.47659039,11.1798966 9.47477679,10.9572821 9.47114954,10.6700331 C9.95357383,10.680805 10.336243,10.6861908 10.6191685,10.6861908 C11.0145388,10.6861908 11.4751927,10.6781121 12.001144,10.6619543 C12.5270953,10.6457966 12.9786811,10.6377178 13.3559152,10.6377178 C13.8093215,10.6377178 14.1321419,10.6502848 14.3243861,10.675419 C14.5782937,10.7077345 14.8004594,10.7651835 14.9908901,10.8477675 C15.1813207,10.9303516 15.3400105,11.0326825 15.4669643,11.1547633 C15.608427,11.2983877 15.7190565,11.4707345 15.798856,11.6718087 C15.8895373,11.9016078 15.9348772,12.147561 15.9348772,12.4096757 C15.9348772,12.6143405 15.9085801,12.8100259 15.8559849,12.9967377 C15.8033898,13.1834495 15.7290323,13.3495128 15.6329101,13.4949325 C15.536788,13.6403523 15.4288789,13.7615336 15.3091797,13.8584801 C15.1894804,13.9554266 15.0725034,14.0308283 14.958245,14.0846875 C14.8439866,14.1385467 14.6907376,14.192405 14.4984933,14.2462642 C14.6907376,14.2785797 14.8448934,14.3153829 14.9609654,14.356675 C15.0770374,14.397967 15.2012689,14.4643923 15.3336635,14.5559529 C15.4660581,14.6475135 15.5848488,14.7651042 15.6900391,14.9087287 C15.7952293,15.0523531 15.8741208,15.2130306 15.9267159,15.3907659 C15.9793111,15.5685011 16.0056082,15.7561078 16.0056082,15.9535914 C16.0056082,16.2264778 15.9602683,16.4832027 15.869587,16.7237737 C15.7789058,16.9643446 15.6519539,17.1708017 15.4887277,17.343151 C15.3508922,17.4903661 15.171346,17.6160356 14.9500837,17.7201634 C14.7288214,17.8242911 14.5021217,17.8961022 14.2699777,17.935599 C14.0813607,17.9643238 13.7376838,17.9858672 13.2389369,18.0002296 C12.74019,18.0145921 12.2115262,18.0217732 11.6529297,18.0217732 L10.2219866,18.0163873 L9.16646204,18.0217732 Z M11.5930803,13.5353267 L12.3656808,13.5353267 C12.6195883,13.5353267 12.8000413,13.5290432 12.9070452,13.5164761 C13.0140491,13.5039089 13.118331,13.481468 13.219894,13.4491525 C13.321457,13.416837 13.4094165,13.3629786 13.4837751,13.2875758 C13.5581337,13.2121729 13.6107281,13.1277948 13.6415597,13.0344389 C13.6723913,12.941083 13.6878069,12.8477285 13.6878069,12.7543726 C13.6878069,12.62152 13.6560689,12.5030316 13.5925921,12.3989039 C13.5291152,12.2947762 13.4266469,12.2175792 13.2851841,12.1673106 C13.1437214,12.117042 12.9279032,12.0919081 12.6377232,12.0919081 L11.6583705,12.0919081 L11.5930803,13.5353267 Z M11.4679408,16.5460393 L12.5125837,16.5460393 C12.7882547,16.5460393 12.9913777,16.5298818 13.1219587,16.4975663 C13.2815577,16.4580696 13.4030688,16.4060065 13.4864955,16.3413755 C13.5699223,16.2767445 13.6361186,16.1887758 13.6850865,16.0774669 C13.7340544,15.9661579 13.7585379,15.8422837 13.7585379,15.7058404 C13.7585379,15.5873503 13.7385884,15.4832241 13.6986886,15.3934588 C13.6587889,15.3036935 13.5989401,15.2282918 13.5191406,15.1672514 C13.4393411,15.106211 13.3414068,15.0622267 13.2253348,15.0352971 C13.1092628,15.0083675 12.927903,14.9949029 12.68125,14.9949029 L11.533231,14.9949029 L11.4679408,16.5460393 Z M16.3291573,18.0217732 L16.4379743,16.6429853 L16.5794364,13.9500402 L16.6392857,12.0434351 C16.6429129,11.8387703 16.6447265,11.6341085 16.6447265,11.4294437 C16.6447265,11.2750474 16.6429129,11.0219131 16.6392857,10.6700331 C17.1180827,10.680805 17.5025655,10.6861908 17.7927455,10.6861908 C18.0720438,10.6861908 18.4547129,10.6781121 18.9407645,10.6619543 C19.426816,10.6457966 19.8385028,10.6377178 20.175837,10.6377178 C20.6618886,10.6377178 21.0218878,10.6682375 21.2558454,10.7292779 C21.489803,10.7903183 21.7010872,10.8863657 21.8897042,11.0174231 C22.0783212,11.1484804 22.2342907,11.3019767 22.3576172,11.4779167 C22.4809437,11.6538566 22.5734372,11.8540302 22.6351004,12.0784434 C22.6967637,12.3028566 22.7275948,12.5317547 22.7275948,12.7651444 C22.7275948,13.2462863 22.609711,13.6861296 22.3739397,14.0846875 C22.1381684,14.4832454 21.80628,14.7812616 21.3782645,14.9787453 C20.950249,15.1762289 20.4696455,15.2749692 19.9364397,15.2749692 C19.7405682,15.2749692 19.5138685,15.2534259 19.2563337,15.2103385 C19.2273157,15.0451704 19.1729077,14.7992172 19.0931082,14.4724716 C19.0133087,14.145726 18.9480192,13.9033633 18.8972377,13.7453764 C19.0568367,13.7776919 19.2236877,13.7938494 19.3977957,13.7938494 C19.764148,13.7938494 20.0370945,13.7067784 20.2166434,13.5326338 C20.3961923,13.3584891 20.4859654,13.1457486 20.4859654,12.8944058 C20.4859654,12.772325 20.4660158,12.6637106 20.426116,12.5685594 C20.3862163,12.4734082 20.3227404,12.3953136 20.2356864,12.3342732 C20.1486324,12.2732328 20.0525117,12.2337367 19.9473214,12.2157836 C19.8421311,12.1978306 19.7224337,12.1888542 19.5882254,12.1888542 C19.4576444,12.1888542 19.3216246,12.1924447 19.1801618,12.1996259 L18.7231306,12.2319413 C18.6759763,12.9249293 18.6397043,13.6951039 18.6143136,14.5424882 C18.5671593,16.0864511 18.5435826,17.0128149 18.5435826,17.3216075 L18.5435826,18.0217732 L17.4608538,18.0110014 C17.3085093,18.0110014 16.9312809,18.014592 16.3291573,18.0217732 Z"/>
  </g>
</svg>
