<?xml version="1.0" encoding="UTF-8" standalone="no"?>
<svg width="16px" height="16px" viewBox="0 0 16 16" version="1.1" xmlns="http://www.w3.org/2000/svg" xmlns:xlink="http://www.w3.org/1999/xlink">
    <!-- Generator: Sketch 49.3 (51167) - http://www.bohemiancoding.com/sketch -->
    <title>search</title>
    <desc>Created with Sketch.</desc>
    <defs></defs>
    <g id="Symbols" stroke="none" stroke-width="1" fill="none" fill-rule="evenodd">
        <g id="search" transform="translate(-264.000000, -23.000000)" fill="#3F3F3F">
            <path d="M275.435106,33.0628931 L274.712407,33.0628931 L274.456261,32.8158948 C275.352773,31.7730132 275.89251,30.4190966 275.89251,28.946255 C275.89251,25.6620926 273.230417,23 269.946255,23 C266.662093,23 264,25.6620926 264,28.946255 C264,32.2304174 266.662093,34.89251 269.946255,34.89251 C271.419097,34.89251 272.773013,34.352773 273.815895,33.4562607 L274.062893,33.7124071 L274.062893,34.4351058 L278.636935,39 L280,37.6369354 L275.435106,33.0628931 L275.435106,33.0628931 Z M269.946255,33.0628931 C267.668382,33.0628931 265.829617,31.2241281 265.829617,28.946255 C265.829617,26.6683819 267.668382,24.8296169 269.946255,24.8296169 C272.224128,24.8296169 274.062893,26.6683819 274.062893,28.946255 C274.062893,31.2241281 272.224128,33.0628931 269.946255,33.0628931 L269.946255,33.0628931 Z" id="Mask"></path>
        </g>
    </g>
</svg>