<?xml version="1.0" encoding="UTF-8" standalone="no"?>
<svg width="36px" height="36px" viewBox="0 0 36 36" version="1.1" xmlns="http://www.w3.org/2000/svg" xmlns:xlink="http://www.w3.org/1999/xlink">
    <!-- Generator: Sketch 49.3 (51167) - http://www.bohemiancoding.com/sketch -->
    <title>telegram</title>
    <desc>Created with Sketch.</desc>
    <defs></defs>
    <g id="Symbols" stroke="none" stroke-width="1" fill="none" fill-rule="evenodd">
        <g id="footer" transform="translate(-729.000000, -20.000000)">
            <g id="Group-3" transform="translate(567.000000, 20.000000)">
                <g id="telegram-copy" transform="translate(162.000000, 0.000000)">
                    <path d="M8.95027053,18.9473708 L12.8674157,20.3682094 L14.383591,25.1069264 C14.4806044,25.4104241 14.8624816,25.5226043 15.1159519,25.3212087 L17.2994348,23.5913102 C17.5283118,23.4100706 17.8543155,23.401039 18.0935058,23.5697773 L22.031731,26.348508 C22.3028813,26.5400459 22.6870252,26.395649 22.7550253,26.077227 L25.6399857,12.5907702 C25.7142191,12.2429402 25.3625454,11.9527697 25.0217516,12.0808654 L8.94568053,18.1079196 C8.54895667,18.256612 8.55241334,18.8024783 8.95027053,18.9473708 Z M14.139244,19.6118607 L21.7948074,15.0295461 C21.9323942,14.9474348 22.0739477,15.1282338 21.9557976,15.2347416 L15.6377393,20.9423273 C15.4156623,21.1432273 15.2724088,21.4120852 15.2318354,21.7039078 L15.0166151,23.2539436 C14.9881118,23.4609014 14.688968,23.481443 14.6302046,23.2811488 L13.8024736,20.4546162 C13.7076701,20.1322291 13.8458236,19.7878684 14.139244,19.6118607 Z" id="XMLID_497_" fill="#3F3F3F" fill-rule="nonzero"></path>
                    <circle id="Oval-8-Copy-2" stroke="#E5EDF3" cx="18" cy="18" r="17"></circle>
                </g>
            </g>
        </g>
    </g>
</svg>