<?xml version="1.0" encoding="UTF-8"?>
<svg width="10px" height="10px" viewBox="0 0 10 10" version="1.1" xmlns="http://www.w3.org/2000/svg" xmlns:xlink="http://www.w3.org/1999/xlink">
    <!-- Generator: Sketch 52.5 (67469) - http://www.bohemiancoding.com/sketch -->
    <title>分组 3 copy 2</title>
    <desc>Created with Sketch.</desc>
    <g id="Page-1" stroke="none" stroke-width="1" fill="none" fill-rule="evenodd">
        <g id="超级节点页面-copy" transform="translate(-373.000000, -308.000000)" fill="#FFFFFF">
            <g id="分组-2-copy-2" transform="translate(139.000000, 296.000000)">
                <g id="提示-copy" transform="translate(234.000000, 12.000000)">
                    <path d="M1.67936845,8.34832541 L1.67936845,5.63575437 L0.427096317,5.63575437 C0.190906908,5.63575437 2.22932783e-13,5.44479601 2.22932783e-13,5.2086066 L2.22932783e-13,2.66187757 C2.22932783e-13,2.42568816 0.190906908,2.2347298 0.427096317,2.2347298 L2.32762347,2.2347298 L5.81808098,0.910113727 C6.03718654,0.825723611 6.28541698,0.937283227 6.3688294,1.15834416 C6.45224183,1.37945656 6.34171136,1.62568016 6.12059896,1.70909258 L3.11153046,2.85048983 L3.11153046,5.00111304 L8.14472676,6.77342575 L8.14472676,1.02368018 L7.48442556,1.24782856 C7.26130633,1.32419132 7.01806726,1.20357521 6.94268219,0.980455975 C6.86734857,0.756359052 6.98693554,0.514149129 7.21005477,0.438764056 L8.43515226,0.0226796206 C8.56482487,-0.0215222753 8.70854536,-0.000424746427 8.82211181,0.079951693 C8.93367143,0.16037959 9,0.289023059 9,0.427700718 L9,7.37748403 C9,7.51616168 8.93264228,7.6458343 8.82010497,7.72621074 C8.7447199,7.77648461 8.65827149,7.80360265 8.57084539,7.80360265 C8.52360751,7.80360265 8.47539193,7.7955753 8.42913174,7.77946914 L3.11153046,5.90777987 L3.11153046,8.34832541 L1.67936845,8.34835114 Z M1.67936845,3.08902535 L0.854244091,3.08902535 L0.854244091,4.78048113 L1.67936845,4.78048113 L1.67936845,3.08902535 Z" id="合并形状"></path>
                </g>
            </g>
        </g>
    </g>
</svg>