<svg xmlns="http://www.w3.org/2000/svg" width="14" height="14" viewBox="0 0 14 14">
  <path fill="#007AFF" d="M7,13.2443182 C10.4486417,13.2443182 13.2443182,10.4486417 13.2443182,7 C13.2443182,3.5513583 10.4486417,0.755681818 7,0.755681818 C3.5513583,0.755681818 0.755681818,3.5513583 0.755681818,7 C0.755681818,10.4486417 3.5513583,13.2443182 7,13.2443182 Z M7,14 C3.13400675,14 0,10.8659932 0,7 C0,3.13400675 3.13400675,0 7,0 C10.8659932,0 14,3.13400675 14,7 C14,10.8659932 10.8659932,14 7,14 Z M7.00795455,4.77272727 C6.56854545,4.77272727 6.2125,4.41668182 6.2125,3.97727273 C6.2125,3.53786364 6.56854545,3.18181818 7.00795455,3.18181818 C7.44736364,3.18181818 7.80340909,3.53786364 7.80340909,3.97727273 C7.80340909,4.41668182 7.44736364,4.77272727 7.00795455,4.77272727 Z M6.41629193,11.1363636 L6.41629193,5.72727273 L7.57192107,5.72727273 L7.57192107,11.1363636 L6.41629193,11.1363636 Z"/>
</svg>
