<svg xmlns="http://www.w3.org/2000/svg" width="24" height="24" viewBox="0 0 24 24">
  <g fill="none" fill-rule="evenodd">
    <rect width="24" height="24"/>
    <path fill="#3498db" d="M23.9571747 6.07132257C23.9571747 5.71328061 23.9571747 5.3999939 23.9571747 5.3999939L15.7333984 5.3999939C15.7333984 5.3999939 15.7333984 5.71328061 15.7333984 6.07132257L15.7333984 7.41397991C15.7333984 7.77202187 15.7333984 8.08530858 15.7333984 8.08530858L23.9571747 8.08530858C23.9571747 8.08530858 23.9571747 7.77202187 23.9571747 7.41397991L23.9571747 6.07132257zM22.1669649 17.4724878C22.1669649 17.1138211 22.1669649 16.7999878 22.1669649 16.7999878L15.7333984 16.7999878C15.7333984 16.7999878 15.7333984 17.1138211 15.7333984 17.4724878L15.7333984 18.8174878C15.7333984 19.1761545 15.7333984 19.4899879 15.7333984 19.4899879L22.1669649 19.4899879C22.1669649 19.4899879 22.1669649 19.1761545 22.1669649 18.8174878L22.1669649 17.4724878zM23.9571747 11.7713195C23.9571747 11.4132776 23.9571747 11.0999908 23.9571747 11.0999908L15.7333984 11.0999908C15.7333984 11.0999908 15.7333984 11.4132776 15.7333984 11.7713195L15.7333984 13.1139769C15.7333984 13.4720188 15.7333984 13.7853055 15.7333984 13.7853055L23.9571747 13.7853055C23.9571747 13.7853055 23.9571747 13.4720188 23.9571747 13.1139769L23.9571747 11.7713195z"/>
    <polygon fill="#3498db" points="13.986 1.5 11.301 1.5 11.301 22.8 13.986 22.8"/>
    <polygon fill="#3498db" points="5.599 6.913 2.121 6.913 2.121 9.521 5.599 9.521 5.599 12.477 10.121 8.239 5.599 4"/>
    <polygon fill="#3498db" points="3.811 15.913 .333 15.913 .333 18.521 3.811 18.521 3.811 21.477 8.333 17.239 3.811 13" transform="matrix(-1 0 0 1 8.667 0)"/>
  </g>
</svg>
