<?xml version="1.0" encoding="UTF-8" standalone="no"?>
<svg width="36px" height="36px" viewBox="0 0 36 36" version="1.1" xmlns="http://www.w3.org/2000/svg" xmlns:xlink="http://www.w3.org/1999/xlink">
    <!-- Generator: Sketch 49.3 (51167) - http://www.bohemiancoding.com/sketch -->
    <title>twitter</title>
    <desc>Created with Sketch.</desc>
    <defs></defs>
    <g id="Symbols" stroke="none" stroke-width="1" fill="none" fill-rule="evenodd">
        <g id="footer" transform="translate(-675.000000, -20.000000)">
            <g id="Group-3" transform="translate(567.000000, 20.000000)">
                <g id="twitter-copy" transform="translate(108.000000, 0.000000)">
                    <path d="M26.1147153,12.7695358 C25.8476516,12.8852777 25.5730751,12.9829618 25.2925212,13.0622665 C25.6246782,12.6952145 25.8779225,12.2633255 26.0325123,11.7907126 C26.0671702,11.6847766 26.031251,11.5688203 25.9421384,11.4995359 C25.8531355,11.4301979 25.7294746,11.4218923 25.6314781,11.478638 C25.0356575,11.8239348 24.3928403,12.0720834 23.7188199,12.2171895 C23.039864,11.5689274 22.1176993,11.2 21.1643863,11.2 C19.1520865,11.2 17.514937,12.7996501 17.514937,14.76587 C17.514937,14.9207284 17.5249724,15.0747295 17.544824,15.2265872 C15.0477515,15.0123575 12.726272,13.8130887 11.132116,11.9023286 C11.0753032,11.834223 10.9877809,11.7975178 10.8981748,11.8045373 C10.8085138,11.8113961 10.727956,11.8608008 10.6826594,11.9367296 C10.3593314,12.4788413 10.1883997,13.0988645 10.1883997,13.7297117 C10.1883997,14.5889349 10.5023503,15.4041654 11.0569323,16.0411748 C10.8883039,15.9841075 10.7246657,15.9127869 10.5684855,15.8280703 C10.4846374,15.7824701 10.3823087,15.7831667 10.299009,15.8298385 C10.2156544,15.8765104 10.1633933,15.9623523 10.1611998,16.0561783 C10.1608159,16.0719857 10.1608159,16.087793 10.1608159,16.1038147 C10.1608159,17.3863534 10.8672459,18.54104 11.9472907,19.1703868 C11.8545039,19.1613311 11.761772,19.148203 11.6696432,19.1310024 C11.5746629,19.113266 11.4769955,19.1457917 11.4129441,19.2165764 C11.348783,19.2873076 11.3275605,19.3859026 11.3571184,19.4759241 C11.7568913,20.6955013 12.7861557,21.5925549 14.0304419,21.8660489 C12.9984357,22.4976462 11.8182556,22.8284753 10.5793436,22.8284753 C10.3208347,22.8284753 10.0608453,22.8136325 9.8063945,22.7842147 C9.67999169,22.7695326 9.55912757,22.8424608 9.51607932,22.9599174 C9.47303107,23.0774276 9.51865673,23.2084411 9.62619509,23.2757965 C11.2177737,24.2729455 13.0581,24.8 14.9481099,24.8 C18.6636397,24.8 20.9879708,23.0879837 22.283531,21.6517655 C23.8990741,19.8609268 24.8256259,17.4905211 24.8256259,15.1484078 C24.8256259,15.050563 24.8240905,14.9517537 24.8210195,14.8532659 C25.4584077,14.3840287 26.0071769,13.816143 26.453727,13.1634335 C26.5215623,13.0643027 26.5142139,12.9332892 26.4356303,12.8420353 C26.3571564,12.7507277 26.2263665,12.7212028 26.1147153,12.7695358 Z" id="XMLID_827_" fill="#3F3F3F" fill-rule="nonzero"></path>
                    <circle id="Oval-8-Copy" stroke="#E5EDF3" cx="18" cy="18" r="17"></circle>
                </g>
            </g>
        </g>
    </g>
</svg>