<?xml version="1.0" encoding="UTF-8" standalone="no"?>
<svg width="36px" height="36px" viewBox="0 0 36 36" version="1.1" xmlns="http://www.w3.org/2000/svg" xmlns:xlink="http://www.w3.org/1999/xlink">
    <!-- Generator: Sketch 49.3 (51167) - http://www.bohemiancoding.com/sketch -->
    <title>wecht</title>
    <desc>Created with Sketch.</desc>
    <defs></defs>
    <g id="Symbols" stroke="none" stroke-width="1" fill="none" fill-rule="evenodd">
        <g id="footer" transform="translate(-837.000000, -20.000000)">
            <g id="Group-3" transform="translate(567.000000, 20.000000)">
                <g id="telegram" transform="translate(270.000000, 0.000000)">
                    <circle id="Oval-8-Copy-2" stroke="#E5EDF3" cx="18" cy="18" r="17"></circle>
                    <g id="Group" transform="translate(9.000000, 11.000000)" fill="#3F3F3F" fill-rule="nonzero">
                        <path d="M12.345948,5.247036 C10.7001,5.333004 9.26892,5.831964 8.106984,6.95916 C6.933024,8.097984 6.397128,9.493488 6.543612,11.223396 C5.900328,11.143728 5.314392,11.056032 4.725108,11.006424 C4.5216,10.989288 4.280076,11.013624 4.107708,11.110896 C3.535524,11.43378 2.986956,11.798316 2.336796,12.20472 C2.4561,11.665152 2.53332,11.192652 2.670012,10.738188 C2.77056,10.40418 2.723976,10.218276 2.416284,10.000728 C0.440568,8.605836 -0.39222,6.518304 0.231012,4.36914 C0.807624,2.380932 2.223648,1.175148 4.147704,0.546588 C6.773868,-0.31122 9.725184,0.563796 11.322072,2.648808 C11.898828,3.401964 12.252492,4.24728 12.345948,5.247036 Z M4.771224,4.577364 C4.78638,4.18428 4.445784,3.830148 4.04118,3.818304 C3.626964,3.806136 3.28626,4.122684 3.274164,4.530852 C3.261924,4.944528 3.578328,5.276052 3.995568,5.286636 C4.409208,5.297148 4.755924,4.980168 4.771224,4.577364 Z M8.723268,3.818052 C8.317188,3.82554 7.974072,4.171392 7.981272,4.566024 C7.988688,4.975092 8.325288,5.295096 8.742852,5.290092 C9.161496,5.285052 9.479016,4.961628 9.475056,4.543956 C9.471564,4.133916 9.136476,3.810492 8.723268,3.818052 Z" id="Shape"></path>
                        <path d="M16.04358,15.507612 C15.522444,15.275556 15.044364,14.9274 14.535396,14.874228 C14.028372,14.821272 13.495392,15.113772 12.964932,15.168024 C11.349144,15.333336 9.901584,14.883012 8.707968,13.77918 C6.437844,11.67948 6.76224,8.46 9.388656,6.739308 C11.722932,5.210028 15.14628,5.71986 16.79202,7.841772 C18.22824,9.69336 18.059436,12.151296 16.306128,13.706784 C15.79878,14.156964 15.616188,14.52744 15.941736,15.1209 C16.00182,15.230484 16.008696,15.369228 16.04358,15.507612 Z M10.111284,9.76392 C10.44306,9.764244 10.716264,9.504612 10.728828,9.176904 C10.742076,8.829972 10.46304,8.538984 10.11564,8.537544 C9.771696,8.535996 9.483552,8.831052 9.495504,9.172836 C9.506772,9.499392 9.781884,9.763524 10.111284,9.76392 Z M13.935528,8.538912 C13.613616,8.53668 13.340088,8.8002 13.326948,9.12546 C13.313016,9.473292 13.58334,9.758916 13.927572,9.75978 C14.2605,9.76086 14.523552,9.509076 14.535648,9.177804 C14.548572,8.82918 14.278104,8.541288 13.935528,8.538912 Z" id="Shape"></path>
                    </g>
                </g>
            </g>
        </g>
    </g>
</svg>