<?xml version="1.0" encoding="UTF-8"?>
<svg width="22px" height="22px" viewBox="0 0 22 22" version="1.1" xmlns="http://www.w3.org/2000/svg" xmlns:xlink="http://www.w3.org/1999/xlink">
    <!-- Generator: Sketch 54.1 (76490) - https://sketchapp.com -->
    <title>复制</title>
    <desc>Created with Sketch.</desc>
    <g id="页面1" stroke="none" stroke-width="1" fill="none" fill-rule="evenodd">
        <g id="智能合约详情-已验证" transform="translate(-1211.000000, -708.000000)">
            <g id="编组-3" transform="translate(1211.000000, 708.000000)">
                <rect id="Rectangle-13" stroke-opacity="0.69" stroke="#D3DFEF" stroke-width="0.5" fill="#F4F9FE" x="0.25" y="0.25" width="21.5" height="21.5" rx="2"></rect>
                <g id="if_document_file_paper_page-02_2850904" transform="translate(4.000000, 4.000000)" fill="#3498DB" opacity="0.8">
                    <g transform="translate(0.980000, 0.000000)" id="Shape">
                        <path d="M-1.13686838e-13,13.2 L-1.96710864e-06,3.69161795 C-1.96710864e-06,3.24979015 0.358170233,2.89161795 0.799998033,2.89161795 C0.799998689,2.89161795 0.799999344,2.89161795 0.8,2.89161795 L5.40760889,2.89163125 C5.61984772,2.89163177 5.82338804,2.97596975 5.97342765,3.12608115 L8.88979211,6.04384112 C9.03973809,6.19385885 9.12397101,6.39728338 9.12397139,6.60938976 L9.12398491,13.2 C9.12398571,13.6418278 8.76581417,14.0000007 8.32398637,14.0000015 C8.32398588,14.0000015 8.32398539,14.0000015 8.32398491,14.0000015 L0.8,14 C0.3581722,14 -1.13854774e-13,13.6418278 -1.13908882e-13,13.2 Z M0.997518672,3.88915074 L0.997518672,13.0024813 L8.12778214,13.0024813 L8.12778214,6.69217821 L5.32475467,3.88915074 L0.997518672,3.88915074 Z" fill-rule="nonzero"></path>
                        <path d="M5.0324817,6.18411867 L5.0324817,3.3903914 C5.0324817,3.11493423 5.25578386,2.89163207 5.53124104,2.89163207 C5.80669821,2.89163207 6.03000037,3.11493423 6.03000037,3.3903914 L6.03000037,5.98693251 L8.62654148,5.98693251 C8.90199865,5.98693251 9.12530081,6.21023467 9.12530081,6.48569184 C9.12530081,6.76114902 8.90199865,6.98445118 8.62654148,6.98445118 L5.83248171,6.98411867 C5.39068281,6.98407779 5.03255572,6.62591757 5.03255572,6.18411867 Z" fill-rule="nonzero"></path>
                        <path d="M10.3380805,10.9736297 C10.0711719,10.9736297 9.85479969,10.7572575 9.85479969,10.4903489 C9.85479969,10.2234403 10.0711719,10.0070681 10.3380805,10.0070681 L11.2650174,10.0070681 L11.2650174,1.17656157 L4.35603526,1.17656157 L4.35603526,1.8760979 C4.35603526,2.14300651 4.13966308,2.35937869 3.87275447,2.35937869 C3.60584586,2.35937869 3.38947368,2.14300651 3.38947368,1.8760979 L3.38947368,1.01 C3.38947368,0.5681722 3.74764588,0.21 4.18947368,0.21 L11.4315789,0.21 C11.8734067,0.21 12.2315789,0.5681722 12.2315789,1.01 L12.2315789,10.1736297 C12.2315789,10.6154575 11.8734067,10.9736297 11.4315789,10.9736297 L10.3380805,10.9736297 Z" fill-rule="nonzero"></path>
                    </g>
                </g>
            </g>
        </g>
    </g>
</svg>