<?xml version="1.0" encoding="UTF-8"?>
<svg width="22px" height="22px" viewBox="0 0 22 22" version="1.1" xmlns="http://www.w3.org/2000/svg" xmlns:xlink="http://www.w3.org/1999/xlink">
    <!-- Generator: Sketch 54.1 (76490) - https://sketchapp.com -->
    <title>放大</title>
    <desc>Created with Sketch.</desc>
    <g id="页面1" stroke="none" stroke-width="1" fill="none" fill-rule="evenodd">
        <g id="智能合约详情-已验证" transform="translate(-1241.000000, -708.000000)">
            <g id="编组-2" transform="translate(1241.000000, 708.000000)">
                <rect id="Rectangle-13复制" stroke-opacity="0.69" stroke="#D3DFEF" stroke-width="0.5" fill="#F4F9FE" x="0.25" y="0.25" width="21.5" height="21.5" rx="2"></rect>
                <g id="Group-13" transform="translate(4.000000, 4.000000)" fill="#3498DB" opacity="0.8" stroke="#3498DB" stroke-linejoin="round">
                    <g id="编组" transform="translate(1.400000, 1.400000)">
                        <path d="M7.39170064,0.233333333 L7.39170064,0.233333333 C7.39170064,0.362199775 7.49616753,0.466666667 7.62503398,0.466666667 L10.4033811,0.466666667 L6.91021352,3.95983429 C6.81909974,4.05094807 6.81909974,4.1986727 6.91021352,4.28978648 L6.91021352,4.28978648 C7.0013273,4.38090026 7.14905193,4.38090026 7.24016571,4.28978648 L10.7333333,0.796618858 L10.7333333,3.57508992 C10.7333333,3.70395637 10.8378002,3.80842326 10.9666667,3.80842326 L10.9666667,3.80842326 C11.0955331,3.80842326 11.2,3.70395637 11.2,3.57508992 L11.2,0.5 C11.2,0.223857625 10.9761424,1.94537167e-16 10.7,0 L7.62503398,-1.11022302e-16 C7.49616753,-8.73499212e-17 7.39170064,0.104466892 7.39170064,0.233333333 Z" id="路径" stroke-width="0.5" fill-rule="nonzero"></path>
                        <path d="M3.80852295,0.233333333 L3.80852295,0.233333333 C3.80852295,0.104466892 3.70405606,-1.34694684e-16 3.57518962,-1.11022302e-16 L0.5,0 C0.223857625,5.07265313e-17 -2.55862292e-16,0.223857625 -2.22044605e-16,0.5 L-2.77555756e-17,3.57508992 C-1.19739881e-17,3.70395637 0.104466892,3.80842326 0.233333333,3.80842326 L0.233333333,3.80842326 C0.362199775,3.80842326 0.466666667,3.70395637 0.466666667,3.57508992 L0.466666667,0.796618858 L3.95984576,4.28979387 C4.05095159,4.38089959 4.19866323,4.38089951 4.28976895,4.28979368 C4.28977135,4.28979128 4.28977375,4.28978888 4.28977615,4.28978648 L4.28977615,4.28978648 C4.38088314,4.19867142 4.38088013,4.05095236 4.28976941,3.95984102 L0.796618858,0.466666667 L3.57518962,0.466666667 C3.70405606,0.466666667 3.80852295,0.362199775 3.80852295,0.233333333 Z" id="路径" stroke-width="0.5" fill-rule="nonzero"></path>
                        <path d="M10.7333333,10.4033811 L7.24016626,6.91023719 C7.14905209,6.81912362 7.00132739,6.81912386 6.91021352,6.91023773 L6.91021352,6.91023773 C6.81910004,7.00135121 6.81910004,7.14907535 6.91021352,7.24018883 C6.9102137,7.24018901 6.91021389,7.2401892 6.91021407,7.24018938 L10.4033811,10.7333333 L7.62503398,10.7333333 C7.49616753,10.7333333 7.39170064,10.8378002 7.39170064,10.9666667 L7.39170064,10.9666667 C7.39170064,11.0955331 7.49616753,11.2 7.62503398,11.2 L10.7,11.2 C10.9761424,11.2 11.2,10.9761424 11.2,10.7 L11.2,7.62491008 C11.2,7.49604363 11.0955331,7.39157674 10.9666667,7.39157674 L10.9666667,7.39157674 C10.8378002,7.39157674 10.7333333,7.49604363 10.7333333,7.62491008 L10.7333333,10.4033811 Z" id="路径" stroke-width="0.5" fill-rule="nonzero"></path>
                        <path d="M3.95984522,6.91022979 L0.466666667,10.4033811 L0.466666667,7.62491008 C0.466666667,7.49604363 0.362199775,7.39157674 0.233333333,7.39157674 L0.233333333,7.39157674 C0.104466892,7.39157674 3.97295637e-17,7.49604363 5.55111512e-17,7.62491008 L-5.55111512e-17,10.7 C-2.16934637e-17,10.9761424 0.223857625,11.2 0.5,11.2 L3.57518962,11.2 C3.70405606,11.2 3.80852295,11.0955331 3.80852295,10.9666667 L3.80852295,10.9666667 C3.80852295,10.8378002 3.70405606,10.7333333 3.57518962,10.7333333 L0.796618858,10.7333333 L4.28976887,7.24018264 C4.38087979,7.1490717 4.38088305,7.0013527 4.28977615,6.91023773 L4.28977615,6.91023773 C4.19867411,6.81912763 4.05096198,6.81912109 3.95985188,6.91022313 C3.95984966,6.91022535 3.95984744,6.91022757 3.95984522,6.91022979 Z" id="路径" stroke-width="0.5" fill-rule="nonzero"></path>
                    </g>
                </g>
            </g>
        </g>
    </g>
</svg>