<?xml version="1.0" encoding="UTF-8"?>
<svg width="22px" height="22px" viewBox="0 0 22 22" version="1.1" xmlns="http://www.w3.org/2000/svg" xmlns:xlink="http://www.w3.org/1999/xlink">
    <!-- Generator: Sketch 54.1 (76490) - https://sketchapp.com -->
    <title>缩小</title>
    <desc>Created with Sketch.</desc>
    <g id="页面1" stroke="none" stroke-width="1" fill="none" fill-rule="evenodd">
        <g id="智能合约详情-已验证" transform="translate(-1271.000000, -708.000000)" stroke-width="0.5">
            <g id="编组-2复制-3" transform="translate(1271.000000, 708.000000)">
                <rect id="Rectangle-13复制" stroke-opacity="0.69" stroke="#D3DFEF" fill="#F4F9FE" x="0.25" y="0.25" width="21.5" height="21.5" rx="2"></rect>
                <g id="Group-13" transform="translate(4.000000, 4.000000)" fill="#3498DB" fill-rule="nonzero" opacity="0.8" stroke="#3498DB" stroke-linejoin="round">
                    <path d="M12.082289,5.28388838 C12.082289,5.40522859 11.9839233,5.50359427 11.8625831,5.50359427 L8.99640705,5.50359427 C8.72026468,5.50359427 8.49640705,5.27973665 8.49640705,5.00359427 L8.49640705,2.13730154 C8.49640705,2.01596132 8.59477273,1.91759565 8.71611294,1.91759565 C8.83745315,1.91759565 8.93581883,2.01596132 8.93581883,2.13730154 L8.93581883,4.75350061 L12.2249738,1.46434565 C12.3107662,1.37855321 12.4498632,1.37855321 12.5356557,1.46434565 C12.6214481,1.55013808 12.6214481,1.6892351 12.5356557,1.77502753 L9.24650071,5.0641825 L11.8625831,5.0641825 C11.9839233,5.0641825 12.082289,5.16254817 12.082289,5.28388838 Z M1.91748676,5.28388838 C1.91748676,5.16254817 2.01585243,5.0641825 2.13719264,5.0641825 L4.75350146,5.0641825 L1.46434416,1.77502118 C1.37855428,1.6892312 1.37855144,1.55013914 1.46434373,1.46433973 C1.55012905,1.37855383 1.689215,1.37855336 1.7750009,1.46433868 L5.06418508,4.75350061 L5.06418508,2.13730276 C5.06418508,2.01596187 5.16255131,1.91759565 5.2838922,1.91759565 C5.40523309,1.91759565 5.50359932,2.01596187 5.50359932,2.13730276 L5.50359932,5.00359427 C5.50359932,5.27973665 5.27974169,5.50359427 5.00359932,5.50359427 L2.13719264,5.50359427 C2.01585243,5.50359427 1.91748676,5.40522859 1.91748676,5.28388838 Z M8.93581883,9.24650439 L8.93581883,11.8627189 C8.93581883,11.9840591 8.83745315,12.0824248 8.71611294,12.0824248 C8.59477273,12.0824248 8.49640705,11.9840591 8.49640705,11.8627189 L8.49640705,8.99640665 C8.49640705,8.72026428 8.72026468,8.49640665 8.99640705,8.49640665 L11.8625819,8.49640665 C11.9839228,8.49640665 12.082289,8.59477287 12.082289,8.71611374 C12.082289,8.83745461 11.9839228,8.93582082 11.8625819,8.93582082 L9.24650071,8.93582082 L12.5356552,12.2249714 C12.6214479,12.310764 12.6214482,12.4498615 12.5356553,12.5356548 C12.4498629,12.6214473 12.3107658,12.6214474 12.2249733,12.5356549 L8.93581883,9.24650439 Z M1.77499517,12.5356682 C1.68920572,12.62145 1.55011969,12.6214439 1.46433781,12.5356544 C1.37855138,12.4498604 1.37855445,12.3107679 1.46434467,12.2249777 L4.75350146,8.93582082 L2.13719384,8.93582082 C2.01585297,8.93582082 1.91748676,8.83745461 1.91748676,8.71611374 C1.91748676,8.59477287 2.01585297,8.49640665 2.13719384,8.49640665 L5.00359932,8.49640665 C5.27974169,8.49640665 5.50359932,8.72026428 5.50359932,8.99640665 L5.50359932,11.8627177 C5.50359932,11.9840585 5.40523309,12.0824248 5.2838922,12.0824248 C5.16255131,12.0824248 5.06418508,11.9840585 5.06418508,11.8627177 L5.06418508,9.24650439 L1.77500142,12.5356619 Z" id="形状结合"></path>
                </g>
            </g>
        </g>
    </g>
</svg>