<?xml version="1.0" encoding="UTF-8"?>
<svg width="28px" height="28px" viewBox="0 0 28 28" version="1.1" xmlns="http://www.w3.org/2000/svg" xmlns:xlink="http://www.w3.org/1999/xlink">
    <!-- Generator: Sketch 54.1 (76490) - https://sketchapp.com -->
    <title>未验证</title>
    <desc>Created with Sketch.</desc>
    <defs>
        <linearGradient x1="0%" y1="5.67847434%" x2="146.966783%" y2="75.8844958%" id="linearGradient-1">
            <stop stop-color="#FFFFFF" offset="0%"></stop>
            <stop stop-color="#000000" offset="100%"></stop>
        </linearGradient>
        <linearGradient x1="6.98382852%" y1="-10.1562864%" x2="173.551645%" y2="212.113165%" id="linearGradient-2">
            <stop stop-color="#FFFFFF" offset="0%"></stop>
            <stop stop-color="#000000" offset="100%"></stop>
        </linearGradient>
    </defs>
    <g id="页面1" stroke="none" stroke-width="1" fill="none" fill-rule="evenodd">
        <g id="智能合约详情-上传代码" transform="translate(-176.000000, -539.000000)">
            <g id="编组-5" transform="translate(176.000000, 539.000000)">
                <path d="M24.6715354,19.0515135 L24.6707506,20.1908574 C24.6707506,21.0101118 24.2551868,21.7343802 23.6259044,22.1618173 L15.9309678,27.2870338 C14.7558901,28.069695 13.2256297,28.069695 12.050552,27.2870338 L4.35561546,22.1618173 C3.72633307,21.7343802 3.31076923,21.0101118 3.31076923,20.1908574 L3.31155203,19.0544361 C3.31898952,19.0644899 3.32649151,19.0744977 3.33405758,19.0844591 C3.52678067,19.3381945 3.76108223,19.5617444 4.0301108,19.7444808 L11.7963178,24.9171958 C13.1253713,25.8024125 14.8561486,25.8024125 16.185202,24.9171958 L23.9470422,19.747418 C24.2294704,19.5555901 24.473506,19.3196239 24.6715354,19.0515135 Z" id="形状结合" fill="url(#linearGradient-1)"></path>
                <path d="M22.3079733,0.579310345 C23.6199677,0.579310345 24.6826238,1.64196645 24.6826238,2.95396086 L24.6707506,17.2943057 C24.6707506,18.1135601 24.2551868,18.8378285 23.6259044,19.2652656 L15.9309678,24.3904821 C14.7558901,25.1731432 13.2256297,25.1731432 12.050552,24.3904821 L4.35561546,19.2652656 C3.72633307,18.8378285 3.31076923,18.1135601 3.31076923,17.2943057 L3.32264248,2.95396086 C3.32264248,1.64196645 4.37342534,0.579310345 5.68541974,0.579310345 L22.3079733,0.579310345 Z M11.7898,17.9471062 L21.7208345,7.93502155 L20.1594552,6.36089935 L11.7898,14.7988618 L7.83393792,10.8107148 L6.27255861,12.384837 L11.7898,17.9471062 Z" id="形状结合" fill="url(#linearGradient-2)"></path>
            </g>
        </g>
    </g>
</svg>