<?xml version="1.0" encoding="UTF-8"?>
<svg width="22px" height="22px" viewBox="0 0 22 22" version="1.1" xmlns="http://www.w3.org/2000/svg" xmlns:xlink="http://www.w3.org/1999/xlink">
    <!-- Generator: Sketch 52.5 (67469) - http://www.bohemiancoding.com/sketch -->
    <title>块广播</title>
    <desc>Created with Sketch.</desc>
    <g id="Page-1" stroke="none" stroke-width="1" fill="none" fill-rule="evenodd">
        <g id="全节点-2-copy-4" transform="translate(-162.000000, -326.000000)" fill="#FF7A00">
            <g id="块广播" transform="translate(140.000000, 303.000000)">
                <g id="分组" transform="translate(22.000000, 22.000000)">
                    <g transform="translate(0.000000, 1.000000)">
                        <path d="M11.4418561,19.3609784 C11.4418561,21.5737842 9.74358273,20.4416978 9.74358273,20.4416978 L2.40156835,14.2661583 L1.26948201,14.2661583 C0.566172662,14.2661583 -1.43884892e-05,13.6828489 -1.43884892e-05,12.9624173 L-1.43884892e-05,7.78184173 C-1.43884892e-05,7.06141007 0.566172662,6.49536691 1.26948201,6.49536691 L2.62458993,6.49536691 L9.74358273,0.439971223 C9.74358273,0.439971223 11.4418561,-0.709381295 11.4418561,1.52069065 L11.4418561,19.3609784 Z" id="Fill-1"></path>
                        <path d="M14.2549065,14.144446 C14.0156259,14.144446 13.7776403,14.0455971 13.6069928,13.8519281 C13.2921727,13.4942302 13.3268489,12.9490504 13.6844029,12.6342302 C14.3233957,12.0717842 14.6897266,11.2683309 14.6897266,10.4300576 C14.6897266,9.59825899 14.3281439,8.7991223 13.6974964,8.23753957 C13.3416691,7.92070504 13.3101583,7.37538129 13.6269928,7.01955396 C13.9439712,6.66372662 14.489295,6.63221583 14.8451223,6.94905036 C15.8428201,7.83768345 16.4151942,9.10646043 16.4151942,10.4300576 C16.4151942,11.7638705 15.8353381,13.0392662 14.8246906,13.9293381 C14.6606619,14.0736547 14.4573525,14.144446 14.2549065,14.144446" id="Fill-3"></path>
                        <path d="M14.8964892,17.4948201 C14.5560576,17.4948201 14.2334676,17.2919424 14.0970647,16.9572662 C13.9173525,16.5158273 14.1294388,16.012518 14.5707338,15.8328058 C16.8044029,14.9234532 18.2475683,12.8079137 18.2475683,10.4433094 C18.2475683,8.06705036 16.7946187,5.94748201 14.5458417,5.04359712 C14.1038273,4.86589928 13.8895827,4.36345324 14.0672806,3.92143885 C14.2449784,3.47928058 14.7474245,3.26503597 15.1894388,3.44258993 C16.5852662,4.00374101 17.7751942,4.94848921 18.6301583,6.17482014 C19.5087194,7.43482014 19.973036,8.91079137 19.973036,10.4433094 C19.973036,11.9699281 19.5120288,13.4410072 18.6399424,14.6979856 C17.7910216,15.9210072 16.6090072,16.8660432 15.2213813,17.4309353 C15.1150504,17.4742446 15.0048345,17.4948201 14.8964892,17.4948201" id="Fill-5"></path>
                    </g>
                </g>
            </g>
        </g>
    </g>
</svg>