<?xml version="1.0" encoding="UTF-8"?>
<svg width="22px" height="22px" viewBox="0 0 22 22" version="1.1" xmlns="http://www.w3.org/2000/svg" xmlns:xlink="http://www.w3.org/1999/xlink">
    <!-- Generator: Sketch 52.5 (67469) - http://www.bohemiancoding.com/sketch -->
    <title>最新块</title>
    <desc>Created with Sketch.</desc>
    <g id="Page-1" stroke="none" stroke-width="1" fill="none" fill-rule="evenodd">
        <g id="全节点-2-copy-4" transform="translate(-162.000000, -127.000000)" fill="#749AF8">
            <g id="最新块" transform="translate(140.000000, 104.000000)">
                <g id="快照块" transform="translate(22.000000, 23.000000)">
                    <path d="M18.8838462,5.62153846 C19.2230769,5.44384615 19.3846154,5.13692308 19.3523077,4.84615385 C19.3846154,4.53923077 19.2230769,4.24846154 18.8838462,4.07076923 L11.5823077,0.258461538 C11.2592308,0.0807692308 10.8715385,-1.43884904e-13 10.4838462,-1.43884904e-13 C10.0961538,-1.43884904e-13 9.70846154,0.0807692308 9.38538462,0.258461538 L2.08384615,4.05461538 C1.74461538,4.23230769 1.59923077,4.53923077 1.61538462,4.83 C1.59923077,5.13692308 1.74461538,5.44384615 2.08384615,5.62153846 L9.38538462,9.41769231 C9.70846154,9.59538462 10.0961538,9.67615385 10.4838462,9.67615385 C10.8715385,9.67615385 11.2592308,9.59538462 11.5823077,9.41769231 L18.8838462,5.62153846 Z M8.62615385,11.2592308 L1.45384615,7.38230769 C0.791538462,7.02692308 0,7.54384615 0,8.35153846 L0,15.9115385 C0,16.7030769 0.403846154,17.4138462 1.06615385,17.7692308 L8.23846154,21.6461538 C8.90076923,22.0015385 9.69230769,21.4684615 9.69230769,20.6607692 L9.69230769,13.1169231 C9.69230769,12.3253846 9.28846154,11.6146154 8.62615385,11.2592308 Z M19.5461538,7.38230769 L12.3738462,11.2753846 C11.7115385,11.6307692 11.3076923,12.3415385 11.3076923,13.1330769 L11.3076923,20.6607692 C11.3076923,21.4684615 12.0992308,22.0015385 12.7615385,21.63 L19.9338462,17.7369231 C20.58,17.3815385 21,16.6707692 21,15.8792308 L21,8.36769231 C21,7.54384615 20.2084615,7.02692308 19.5461538,7.38230769 Z" id="Fill-1"></path>
                </g>
            </g>
        </g>
    </g>
</svg>