<?xml version="1.0" encoding="UTF-8"?>
<svg width="22px" height="22px" viewBox="0 0 22 22" version="1.1" xmlns="http://www.w3.org/2000/svg" xmlns:xlink="http://www.w3.org/1999/xlink">
    <!-- Generator: Sketch 52.5 (67469) - http://www.bohemiancoding.com/sketch -->
    <title>节点位置</title>
    <desc>Created with Sketch.</desc>
    <g id="Page-1" stroke="none" stroke-width="1" fill="none" fill-rule="evenodd">
        <g id="全节点-2-copy-4" transform="translate(-764.000000, -326.000000)">
            <g id="节点所在位置图" transform="translate(742.000000, 303.000000)">
                <g id="标题" transform="translate(22.000000, 20.000000)">
                    <g id="分组-5" transform="translate(0.000000, 2.000000)">
                        <g id="分组-8" transform="translate(3.000000, 2.000000)">
                            <path d="M7.96263226,-2.93098879e-13 C3.5716129,-2.93098879e-13 -0.000412903225,3.5716129 7.61168906e-13,7.96221935 C7.61168906e-13,9.59308387 0.489909677,11.1612903 1.40696774,12.4812387 C1.45290323,12.5604129 1.49945806,12.6370065 1.55406452,12.7114323 L7.36609032,20.3725419 C7.52392258,20.5484387 7.73594839,20.6451613 7.96304516,20.6451613 C8.18714839,20.6451613 8.4004129,20.5475097 8.58498065,20.3406452 L14.3703742,12.7100903 C14.4275613,12.6344258 14.4761806,12.5514323 14.5028129,12.5028129 C15.4331871,11.1643871 15.9256774,9.59442581 15.9256774,7.96304516 C15.9256774,3.5716129 12.3535484,-2.93098879e-13 7.96263226,-2.93098879e-13" id="路径" fill="#EE2E38"></path>
                            <path d="M5.11829677,8.44387097 C5.11829677,6.87566452 6.39437419,5.6 7.96258065,5.6 C9.53068387,5.6 10.8068645,6.87607742 10.8068645,8.44387097 C10.8068645,10.0124903 9.53068387,11.2885677 7.96258065,11.2885677 C6.39437419,11.2885677 5.11829677,10.0124903 5.11829677,8.44387097 Z" id="路径" fill="#FFFFFF"></path>
                        </g>
                    </g>
                </g>
            </g>
        </g>
    </g>
</svg>