<?xml version="1.0" encoding="UTF-8"?>
<svg width="22px" height="22px" viewBox="0 0 22 22" version="1.1" xmlns="http://www.w3.org/2000/svg" xmlns:xlink="http://www.w3.org/1999/xlink">
    <!-- Generator: Sketch 52.5 (67469) - http://www.bohemiancoding.com/sketch -->
    <title>在线节点</title>
    <desc>Created with Sketch.</desc>
    <g id="Page-1" stroke="none" stroke-width="1" fill="none" fill-rule="evenodd">
        <g id="全节点-2-copy-4" transform="translate(-561.000000, -127.000000)" fill="#5CB85C">
            <g id="在线节点" transform="translate(539.000000, 104.000000)">
                <g transform="translate(22.000000, 23.000000)" id="Fill-1">
                    <path d="M18.1086939,14.0013388 C17.0414694,14.0013388 16.081551,14.4503184 15.4,15.1673388 L7.43644898,11.267951 C7.46383673,11.0847673 7.48269388,10.8993388 7.48269388,10.7085224 C7.48269388,10.5226449 7.46473469,10.3412571 7.43869388,10.1630122 L15.3905714,6.30672653 C16.0725714,7.02913469 17.0369796,7.48260408 18.1086939,7.48260408 C20.174898,7.48260408 21.8500408,5.80746122 21.8500408,3.74125714 C21.8500408,1.67460408 20.174898,-8.97959184e-05 18.1086939,-8.97959184e-05 C16.0424898,-8.97959184e-05 14.3673469,1.67460408 14.3673469,3.74125714 C14.3673469,3.92713469 14.3853061,4.10807347 14.4113469,4.28676735 L6.45946939,8.14305306 C5.77746939,7.4206449 4.8135102,6.96717551 3.74134694,6.96717551 C1.67469388,6.96717551 0,8.64231837 0,10.7085224 C0,12.7756245 1.67469388,14.4498694 3.74134694,14.4498694 C4.80857143,14.4498694 5.7684898,14.0008898 6.45004082,13.2843184 L14.4135918,17.1832571 C14.3862041,17.3659918 14.3673469,17.5518694 14.3673469,17.7426857 C14.3673469,19.8097878 16.0424898,21.4840327 18.1086939,21.4840327 C20.174898,21.4840327 21.8500408,19.8097878 21.8500408,17.7426857 C21.8500408,15.6760327 20.174898,14.0013388 18.1086939,14.0013388"></path>
                </g>
            </g>
        </g>
    </g>
</svg>